<?xml version="1.0" encoding="UTF-8" standalone="no"?>
<!DOCTYPE svg PUBLIC "-//W3C//DTD SVG 1.1//EN"
 "http://www.w3.org/Graphics/SVG/1.1/DTD/svg11.dtd">
<!-- Generated by graphviz version 2.38.0 (20140413.2041)
 -->
<!-- Title: Control&#45;flow graph for function &#39;levelfive()&#39;. Pages: 1 -->
<svg width="998pt" height="1193pt"
 viewBox="0.00 0.00 997.50 1193.00" xmlns="http://www.w3.org/2000/svg" xmlns:xlink="http://www.w3.org/1999/xlink">
<g id="graph0" class="graph" transform="scale(1 1) rotate(0) translate(4 1189)">
<title>Control&#45;flow graph for function &#39;levelfive()&#39;.</title>
<polygon fill="white" stroke="none" points="-4,4 -4,-1189 993.5,-1189 993.5,4 -4,4"/>
<text text-anchor="middle" x="494.75" y="-7.8" font-family="Times,serif" font-size="14.00">Control&#45;flow graph for function &#39;levelfive()&#39;.</text>
<!-- Node0x20fcaf0 -->
<g id="node1" class="node"><title>Node0x20fcaf0</title>
<polygon fill="none" stroke="black" points="417,-1148.5 417,-1184.5 476,-1184.5 476,-1148.5 417,-1148.5"/>
<text text-anchor="start" x="425" y="-1162.8" font-family="Times,serif" font-size="14.00">entry:</text>
</g>
<!-- Node0x2134380 -->
<g id="node2" class="node"><title>Node0x2134380</title>
<polygon fill="none" stroke="black" points="-5.68434e-14,-1012.5 -5.68434e-14,-1110.5 893,-1110.5 893,-1012.5 -5.68434e-14,-1012.5"/>
<text text-anchor="start" x="8" y="-1095.3" font-family="Times,serif" font-size="14.00">v1 = *(IntToPtrCastExpr&lt;ptr&gt;(20))</text>
<text text-anchor="start" x="8" y="-1080.3" font-family="Times,serif" font-size="14.00"> v2 = 3</text>
<text text-anchor="start" x="8" y="-1065.3" font-family="Times,serif" font-size="14.00"> puts(&quot;====================================================================&quot;)</text>
<text text-anchor="start" x="8" y="-1050.3" font-family="Times,serif" font-size="14.00"> puts(&quot; LEVEL 05 &quot;)</text>
<text text-anchor="start" x="8" y="-1035.3" font-family="Times,serif" font-size="14.00"> puts(&quot;====================================================================&quot;)</text>
<text text-anchor="start" x="8" y="-1020.3" font-family="Times,serif" font-size="14.00"> printf(&quot;Enter Code: &quot;)</text>
</g>
<!-- Node0x20fcaf0&#45;&gt;Node0x2134380 -->
<g id="edge1" class="edge"><title>Node0x20fcaf0&#45;&gt;Node0x2134380</title>
<path fill="none" stroke="black" d="M446.5,-1148.49C446.5,-1140.69 446.5,-1130.94 446.5,-1120.83"/>
<polygon fill="black" stroke="black" points="450,-1120.66 446.5,-1110.66 443,-1120.66 450,-1120.66"/>
</g>
<!-- Node0x20ed4a0 -->
<g id="node3" class="node"><title>Node0x20ed4a0</title>
<polygon fill="none" stroke="black" points="370.5,-938.5 370.5,-974.5 522.5,-974.5 522.5,-938.5 370.5,-938.5"/>
<text text-anchor="start" x="378.5" y="-952.8" font-family="Times,serif" font-size="14.00">for i in range(0, 5):</text>
</g>
<!-- Node0x2134380&#45;&gt;Node0x20ed4a0 -->
<g id="edge2" class="edge"><title>Node0x2134380&#45;&gt;Node0x20ed4a0</title>
<path fill="none" stroke="black" d="M446.5,-1012.32C446.5,-1002.89 446.5,-993.32 446.5,-984.868"/>
<polygon fill="black" stroke="black" points="450,-984.856 446.5,-974.856 443,-984.856 450,-984.856"/>
</g>
<!-- Node0x20e02e0 -->
<g id="node4" class="node"><title>Node0x20e02e0</title>
<polygon fill="none" stroke="black" points="123,-847.5 123,-885.5 770,-885.5 770,-847.5 123,-847.5"/>
<text text-anchor="start" x="131" y="-870.3" font-family="Times,serif" font-size="14.00">0x8048e58:</text>
<text text-anchor="start" x="131" y="-855.3" font-family="Times,serif" font-size="14.00"> scanf(&quot;%f&quot;, IntToPtrCastExpr&lt;ptr&gt;(((PtrToIntCastExpr&lt;int32&gt;(&amp;(v2)) + 4) + (8 * i))))</text>
</g>
<!-- Node0x20ed4a0&#45;&gt;Node0x20e02e0 -->
<g id="edge3" class="edge"><title>Node0x20ed4a0&#45;&gt;Node0x20e02e0</title>
<path fill="none" stroke="black" d="M440.996,-938.114C439.697,-926.06 439.414,-909.736 440.146,-895.82"/>
<polygon fill="black" stroke="black" points="443.643,-895.994 440.905,-885.759 436.663,-895.467 443.643,-895.994"/>
</g>
<!-- Node0x211fdc0 -->
<g id="node5" class="node"><title>Node0x211fdc0</title>
<polygon fill="none" stroke="black" points="788.5,-832.5 788.5,-900.5 888.5,-900.5 888.5,-832.5 788.5,-832.5"/>
<text text-anchor="start" x="796.5" y="-885.3" font-family="Times,serif" font-size="14.00">0x8048ee4:</text>
<text text-anchor="start" x="796.5" y="-870.3" font-family="Times,serif" font-size="14.00"> v3</text>
<text text-anchor="start" x="796.5" y="-855.3" font-family="Times,serif" font-size="14.00"> v4 = &amp;(v3)</text>
<text text-anchor="start" x="796.5" y="-840.3" font-family="Times,serif" font-size="14.00"> v5 = 0</text>
</g>
<!-- Node0x20ed4a0&#45;&gt;Node0x211fdc0 -->
<g id="edge4" class="edge"><title>Node0x20ed4a0&#45;&gt;Node0x211fdc0</title>
<path fill="none" stroke="black" d="M522.786,-950.71C589.188,-944.815 687.563,-931.902 778.564,-900.922"/>
<polygon fill="black" stroke="black" points="779.905,-904.162 788.195,-897.565 777.601,-897.552 779.905,-904.162"/>
</g>
<!-- Node0x20e02e0&#45;&gt;Node0x20ed4a0 -->
<g id="edge5" class="edge"><title>Node0x20e02e0&#45;&gt;Node0x20ed4a0</title>
<path fill="none" stroke="black" d="M452.095,-885.759C453.334,-897.893 453.576,-914.057 452.822,-927.768"/>
<polygon fill="black" stroke="black" points="449.303,-927.869 452.004,-938.114 456.281,-928.421 449.303,-927.869"/>
</g>
<!-- Node0x20e0390 -->
<g id="node6" class="node"><title>Node0x20e0390</title>
<polygon fill="none" stroke="black" points="790,-758.5 790,-794.5 887,-794.5 887,-758.5 790,-758.5"/>
<text text-anchor="start" x="798" y="-772.8" font-family="Times,serif" font-size="14.00">while True:</text>
</g>
<!-- Node0x211fdc0&#45;&gt;Node0x20e0390 -->
<g id="edge6" class="edge"><title>Node0x211fdc0&#45;&gt;Node0x20e0390</title>
<path fill="none" stroke="black" d="M838.5,-832.482C838.5,-823.328 838.5,-813.497 838.5,-804.715"/>
<polygon fill="black" stroke="black" points="842,-804.64 838.5,-794.64 835,-804.64 842,-804.64"/>
</g>
<!-- Node0x21508a0 -->
<g id="node7" class="node"><title>Node0x21508a0</title>
<polygon fill="none" stroke="black" points="428,-608.5 428,-706.5 829,-706.5 829,-608.5 428,-608.5"/>
<text text-anchor="start" x="436" y="-691.3" font-family="Times,serif" font-size="14.00">v6 = (8 * v5)</text>
<text text-anchor="start" x="436" y="-676.3" font-family="Times,serif" font-size="14.00"> ayylmao(*(IntToPtrCastExpr&lt;ptr&gt;(((v4 &#45; 48) + v6))))</text>
<text text-anchor="start" x="436" y="-661.3" font-family="Times,serif" font-size="14.00"> v7 = round(0.0e+0)</text>
<text text-anchor="start" x="436" y="-646.3" font-family="Times,serif" font-size="14.00"> v8 = g1</text>
<text text-anchor="start" x="436" y="-631.3" font-family="Times,serif" font-size="14.00"> v9 = *(IntToPtrCastExpr&lt;ptr&gt;(((v6 &#45; 52) + v8)))</text>
<text text-anchor="start" x="436" y="-616.3" font-family="Times,serif" font-size="14.00"> v10 = (v5 + 1)</text>
</g>
<!-- Node0x20e0390&#45;&gt;Node0x21508a0 -->
<g id="edge7" class="edge"><title>Node0x20e0390&#45;&gt;Node0x21508a0</title>
<path fill="none" stroke="black" d="M807.964,-758.487C785.704,-746.085 754.244,-728.558 723.869,-711.634"/>
<polygon fill="black" stroke="black" points="725.355,-708.455 714.915,-706.646 721.948,-714.57 725.355,-708.455"/>
<text text-anchor="middle" x="787.5" y="-728.8" font-family="Times,serif" font-size="14.00">True</text>
</g>
<!-- Node0x2150940 -->
<g id="node8" class="node"><title>Node0x2150940</title>
<polygon fill="none" stroke="black" points="434.5,-534.5 434.5,-570.5 744.5,-570.5 744.5,-534.5 434.5,-534.5"/>
<text text-anchor="start" x="442.5" y="-548.8" font-family="Times,serif" font-size="14.00">if (FPToIntCastExpr&lt;int32&gt;(v7) == v9):</text>
</g>
<!-- Node0x21508a0&#45;&gt;Node0x2150940 -->
<g id="edge8" class="edge"><title>Node0x21508a0&#45;&gt;Node0x2150940</title>
<path fill="none" stroke="black" d="M610.256,-608.317C606.608,-598.684 602.902,-588.894 599.65,-580.306"/>
<polygon fill="black" stroke="black" points="602.886,-578.969 596.072,-570.856 596.34,-581.448 602.886,-578.969"/>
</g>
<!-- Node0x20e03f0 -->
<g id="node9" class="node"><title>Node0x20e03f0</title>
<polygon fill="none" stroke="black" points="606,-444.5 606,-482.5 725,-482.5 725,-444.5 606,-444.5"/>
<text text-anchor="start" x="614" y="-467.3" font-family="Times,serif" font-size="14.00">0x8048ee4:</text>
<text text-anchor="start" x="614" y="-452.3" font-family="Times,serif" font-size="14.00"> if (v10 &gt;= 5):</text>
</g>
<!-- Node0x2150940&#45;&gt;Node0x20e03f0 -->
<g id="edge9" class="edge"><title>Node0x2150940&#45;&gt;Node0x20e03f0</title>
<path fill="none" stroke="black" d="M585.588,-534.298C584.194,-523.874 584.265,-510.752 590.5,-501 593.523,-496.272 597.349,-492.139 601.665,-488.53"/>
<polygon fill="black" stroke="black" points="603.842,-491.275 609.898,-482.582 599.743,-485.601 603.842,-491.275"/>
<text text-anchor="middle" x="723" y="-504.8" font-family="Times,serif" font-size="14.00">FPToIntCastExpr&lt;int32&gt;(v7) == v9</text>
</g>
<!-- Node0x2109330 -->
<g id="node10" class="node"><title>Node0x2109330</title>
<polygon fill="none" stroke="black" points="150.5,-444.5 150.5,-482.5 464.5,-482.5 464.5,-444.5 150.5,-444.5"/>
<text text-anchor="start" x="158.5" y="-467.3" font-family="Times,serif" font-size="14.00">0x8048eef:</text>
<text text-anchor="start" x="158.5" y="-452.3" font-family="Times,serif" font-size="14.00"> if (*(IntToPtrCastExpr&lt;ptr&gt;(20)) != v1):</text>
</g>
<!-- Node0x2150940&#45;&gt;Node0x2109330 -->
<g id="edge10" class="edge"><title>Node0x2150940&#45;&gt;Node0x2109330</title>
<path fill="none" stroke="black" d="M434.444,-545.178C385.975,-540.204 340.456,-531.427 322.5,-516 315.646,-510.112 311.833,-501.288 309.74,-492.601"/>
<polygon fill="black" stroke="black" points="313.17,-491.894 307.994,-482.649 306.275,-493.103 313.17,-491.894"/>
<text text-anchor="middle" x="452" y="-504.8" font-family="Times,serif" font-size="14.00">FPToIntCastExpr&lt;int32&gt;(v7) != v9</text>
</g>
<!-- Node0x2109e70 -->
<g id="node11" class="node"><title>Node0x2109e70</title>
<polygon fill="none" stroke="black" points="584,-347 584,-385 747,-385 747,-347 584,-347"/>
<text text-anchor="start" x="592" y="-369.8" font-family="Times,serif" font-size="14.00">break &#45;&gt; 0x8048eef:</text>
<text text-anchor="start" x="592" y="-354.8" font-family="Times,serif" font-size="14.00"> break</text>
</g>
<!-- Node0x20e03f0&#45;&gt;Node0x2109e70 -->
<g id="edge11" class="edge"><title>Node0x20e03f0&#45;&gt;Node0x2109e70</title>
<path fill="none" stroke="black" d="M665.5,-444.087C665.5,-430.258 665.5,-411.071 665.5,-395.299"/>
<polygon fill="black" stroke="black" points="669,-395.033 665.5,-385.033 662,-395.033 669,-395.033"/>
<text text-anchor="middle" x="700" y="-414.8" font-family="Times,serif" font-size="14.00">v10 &gt;= 5</text>
</g>
<!-- Node0x2109d90 -->
<g id="node12" class="node"><title>Node0x2109d90</title>
<polygon fill="none" stroke="black" points="795.5,-339.5 795.5,-392.5 881.5,-392.5 881.5,-339.5 795.5,-339.5"/>
<text text-anchor="start" x="803.5" y="-377.3" font-family="Times,serif" font-size="14.00">v4 = v8</text>
<text text-anchor="start" x="803.5" y="-362.3" font-family="Times,serif" font-size="14.00"> v5 = v10</text>
<text text-anchor="start" x="803.5" y="-347.3" font-family="Times,serif" font-size="14.00"> continue</text>
</g>
<!-- Node0x20e03f0&#45;&gt;Node0x2109d90 -->
<g id="edge12" class="edge"><title>Node0x20e03f0&#45;&gt;Node0x2109d90</title>
<path fill="none" stroke="black" d="M702.895,-444.425C714.401,-438.697 727.05,-432.231 738.5,-426 754.633,-417.221 771.95,-407.217 787.565,-397.972"/>
<polygon fill="black" stroke="black" points="789.736,-400.753 796.54,-392.632 786.156,-394.738 789.736,-400.753"/>
<text text-anchor="middle" x="792" y="-414.8" font-family="Times,serif" font-size="14.00">v10 &lt; 5</text>
</g>
<!-- Node0x2109df0 -->
<g id="node13" class="node"><title>Node0x2109df0</title>
<polygon fill="none" stroke="black" points="392,-347 392,-385 541,-385 541,-347 392,-347"/>
<text text-anchor="start" x="400" y="-369.8" font-family="Times,serif" font-size="14.00">0x8048efb:</text>
<text text-anchor="start" x="400" y="-354.8" font-family="Times,serif" font-size="14.00"> __stack_chk_fail()</text>
</g>
<!-- Node0x2109330&#45;&gt;Node0x2109df0 -->
<g id="edge13" class="edge"><title>Node0x2109330&#45;&gt;Node0x2109df0</title>
<path fill="none" stroke="black" d="M337.781,-444.312C363.31,-428.979 400.003,-406.94 427.686,-390.313"/>
<polygon fill="black" stroke="black" points="429.561,-393.269 436.332,-385.12 425.957,-387.268 429.561,-393.269"/>
<text text-anchor="middle" x="525" y="-414.8" font-family="Times,serif" font-size="14.00">*(IntToPtrCastExpr&lt;ptr&gt;(20)) != v1</text>
</g>
<!-- Node0x2109670 -->
<g id="node14" class="node"><title>Node0x2109670</title>
<polygon fill="none" stroke="black" points="296.5,-263.5 296.5,-301.5 394.5,-301.5 394.5,-263.5 296.5,-263.5"/>
<text text-anchor="start" x="304.5" y="-286.3" font-family="Times,serif" font-size="14.00">0x8048f00:</text>
<text text-anchor="start" x="304.5" y="-271.3" font-family="Times,serif" font-size="14.00"> return 0</text>
</g>
<!-- Node0x2109330&#45;&gt;Node0x2109670 -->
<g id="edge14" class="edge"><title>Node0x2109330&#45;&gt;Node0x2109670</title>
<path fill="none" stroke="black" d="M186.791,-444.497C157.841,-434.203 130.209,-418.112 112.5,-393 98.6685,-373.387 97.625,-357.834 112.5,-339 133.771,-312.068 224.476,-296.793 286.235,-289.339"/>
<polygon fill="black" stroke="black" points="286.738,-292.804 296.264,-288.166 285.925,-285.852 286.738,-292.804"/>
<text text-anchor="middle" x="248" y="-362.3" font-family="Times,serif" font-size="14.00">*(IntToPtrCastExpr&lt;ptr&gt;(20)) == v1</text>
</g>
<!-- Node0x20e0540 -->
<g id="node15" class="node"><title>Node0x20e0540</title>
<polygon fill="none" stroke="black" points="508.5,-263.5 508.5,-301.5 822.5,-301.5 822.5,-263.5 508.5,-263.5"/>
<text text-anchor="start" x="516.5" y="-286.3" font-family="Times,serif" font-size="14.00">0x8048eef:</text>
<text text-anchor="start" x="516.5" y="-271.3" font-family="Times,serif" font-size="14.00"> if (*(IntToPtrCastExpr&lt;ptr&gt;(20)) != v1):</text>
</g>
<!-- Node0x2109e70&#45;&gt;Node0x20e0540 -->
<g id="edge15" class="edge"><title>Node0x2109e70&#45;&gt;Node0x20e0540</title>
<path fill="none" stroke="black" d="M665.5,-346.913C665.5,-336.572 665.5,-323.377 665.5,-311.704"/>
<polygon fill="black" stroke="black" points="669,-311.537 665.5,-301.537 662,-311.537 669,-311.537"/>
</g>
<!-- Node0x2109d90&#45;&gt;Node0x20e0390 -->
<g id="edge16" class="edge"><title>Node0x2109d90&#45;&gt;Node0x20e0390</title>
<path fill="none" stroke="black" d="M851.647,-392.621C860.096,-411.447 869.5,-437.922 869.5,-462.5 869.5,-658.5 869.5,-658.5 869.5,-658.5 869.5,-690.35 858.633,-725.499 849.767,-748.876"/>
<polygon fill="black" stroke="black" points="846.412,-747.845 846.004,-758.432 852.925,-750.41 846.412,-747.845"/>
</g>
<!-- Node0x2109df0&#45;&gt;Node0x2109670 -->
<g id="edge17" class="edge"><title>Node0x2109df0&#45;&gt;Node0x2109670</title>
<path fill="none" stroke="black" d="M439.646,-346.913C422.258,-335.2 399.432,-319.826 380.611,-307.149"/>
<polygon fill="black" stroke="black" points="382.528,-304.221 372.279,-301.537 378.618,-310.026 382.528,-304.221"/>
</g>
<!-- Node0x20df0f0 -->
<g id="node16" class="node"><title>Node0x20df0f0</title>
<polygon fill="none" stroke="black" points="343.5,-23.5 343.5,-59.5 397.5,-59.5 397.5,-23.5 343.5,-23.5"/>
<text text-anchor="start" x="351.5" y="-37.8" font-family="Times,serif" font-size="14.00">exit:</text>
</g>
<!-- Node0x2109670&#45;&gt;Node0x20df0f0 -->
<g id="edge18" class="edge"><title>Node0x2109670&#45;&gt;Node0x20df0f0</title>
<path fill="none" stroke="black" d="M347.319,-263.426C350.654,-230.379 358.002,-157.997 364.5,-97 365.446,-88.1173 366.505,-78.4234 367.467,-69.7066"/>
<polygon fill="black" stroke="black" points="370.955,-70.0034 368.577,-59.6788 363.998,-69.2327 370.955,-70.0034"/>
</g>
<!-- Node0x2109850 -->
<g id="node17" class="node"><title>Node0x2109850</title>
<polygon fill="none" stroke="black" points="698,-173.5 698,-211.5 847,-211.5 847,-173.5 698,-173.5"/>
<text text-anchor="start" x="706" y="-196.3" font-family="Times,serif" font-size="14.00">0x8048efb:</text>
<text text-anchor="start" x="706" y="-181.3" font-family="Times,serif" font-size="14.00"> __stack_chk_fail()</text>
</g>
<!-- Node0x20e0540&#45;&gt;Node0x2109850 -->
<g id="edge19" class="edge"><title>Node0x20e0540&#45;&gt;Node0x2109850</title>
<path fill="none" stroke="black" d="M687.411,-263.48C703.174,-250.516 724.637,-232.864 742.063,-218.532"/>
<polygon fill="black" stroke="black" points="744.75,-220.854 750.25,-211.799 740.304,-215.448 744.75,-220.854"/>
<text text-anchor="middle" x="857" y="-233.8" font-family="Times,serif" font-size="14.00">*(IntToPtrCastExpr&lt;ptr&gt;(20)) != v1</text>
</g>
<!-- Node0x21089c0 -->
<g id="node18" class="node"><title>Node0x21089c0</title>
<polygon fill="none" stroke="black" points="373.5,-97.5 373.5,-135.5 471.5,-135.5 471.5,-97.5 373.5,-97.5"/>
<text text-anchor="start" x="381.5" y="-120.3" font-family="Times,serif" font-size="14.00">0x8048f00:</text>
<text text-anchor="start" x="381.5" y="-105.3" font-family="Times,serif" font-size="14.00"> return 1</text>
</g>
<!-- Node0x20e0540&#45;&gt;Node0x21089c0 -->
<g id="edge20" class="edge"><title>Node0x20e0540&#45;&gt;Node0x21089c0</title>
<path fill="none" stroke="black" d="M553.227,-263.451C496.263,-251.762 435.546,-234.505 418.5,-212 404.25,-193.188 407.261,-165.714 412.643,-145.233"/>
<polygon fill="black" stroke="black" points="416.034,-146.108 415.502,-135.527 409.319,-144.13 416.034,-146.108"/>
<text text-anchor="middle" x="554" y="-188.8" font-family="Times,serif" font-size="14.00">*(IntToPtrCastExpr&lt;ptr&gt;(20)) == v1</text>
</g>
<!-- Node0x2109850&#45;&gt;Node0x21089c0 -->
<g id="edge21" class="edge"><title>Node0x2109850&#45;&gt;Node0x21089c0</title>
<path fill="none" stroke="black" d="M697.846,-175.716C633.319,-162.073 541.301,-142.618 481.734,-130.024"/>
<polygon fill="black" stroke="black" points="482.241,-126.554 471.734,-127.909 480.793,-133.402 482.241,-126.554"/>
</g>
<!-- Node0x21089c0&#45;&gt;Node0x20df0f0 -->
<g id="edge22" class="edge"><title>Node0x21089c0&#45;&gt;Node0x20df0f0</title>
<path fill="none" stroke="black" d="M409.646,-97.4551C403.319,-88.5727 395.582,-77.7116 388.663,-67.9975"/>
<polygon fill="black" stroke="black" points="391.501,-65.9489 382.848,-59.8347 385.799,-70.0102 391.501,-65.9489"/>
</g>
</g>
</svg>
