<?xml version="1.0" encoding="UTF-8" standalone="no"?>
<!DOCTYPE svg PUBLIC "-//W3C//DTD SVG 1.1//EN"
 "http://www.w3.org/Graphics/SVG/1.1/DTD/svg11.dtd">
<!-- Generated by graphviz version 2.38.0 (20140413.2041)
 -->
<!-- Title: Control&#45;flow graph for function &#39;leveltwo()&#39;. Pages: 1 -->
<svg width="1089pt" height="1193pt"
 viewBox="0.00 0.00 1088.92 1193.00" xmlns="http://www.w3.org/2000/svg" xmlns:xlink="http://www.w3.org/1999/xlink">
<g id="graph0" class="graph" transform="scale(1 1) rotate(0) translate(4 1189)">
<title>Control&#45;flow graph for function &#39;leveltwo()&#39;.</title>
<polygon fill="white" stroke="none" points="-4,4 -4,-1189 1084.92,-1189 1084.92,4 -4,4"/>
<text text-anchor="middle" x="540.461" y="-7.8" font-family="Times,serif" font-size="14.00">Control&#45;flow graph for function &#39;leveltwo()&#39;.</text>
<!-- Node0x219bf40 -->
<g id="node1" class="node"><title>Node0x219bf40</title>
<polygon fill="none" stroke="black" points="604.923,-1148.5 604.923,-1184.5 663.923,-1184.5 663.923,-1148.5 604.923,-1148.5"/>
<text text-anchor="start" x="612.923" y="-1162.8" font-family="Times,serif" font-size="14.00">entry:</text>
</g>
<!-- Node0x217f650 -->
<g id="node2" class="node"><title>Node0x217f650</title>
<polygon fill="none" stroke="black" points="187.923,-877.5 187.923,-1110.5 1080.92,-1110.5 1080.92,-877.5 187.923,-877.5"/>
<text text-anchor="start" x="195.923" y="-1095.3" font-family="Times,serif" font-size="14.00">v1 = *(IntToPtrCastExpr&lt;ptr&gt;(20))</text>
<text text-anchor="start" x="195.923" y="-1080.3" font-family="Times,serif" font-size="14.00"> puts(&quot;====================================================================&quot;)</text>
<text text-anchor="start" x="195.923" y="-1065.3" font-family="Times,serif" font-size="14.00"> puts(&quot; LEVEL 02 &quot;)</text>
<text text-anchor="start" x="195.923" y="-1050.3" font-family="Times,serif" font-size="14.00"> puts(&quot;====================================================================&quot;)</text>
<text text-anchor="start" x="195.923" y="-1035.3" font-family="Times,serif" font-size="14.00"> printf(&quot;Enter code: &quot;)</text>
<text text-anchor="start" x="195.923" y="-1020.3" font-family="Times,serif" font-size="14.00"> v2</text>
<text text-anchor="start" x="195.923" y="-1005.3" font-family="Times,serif" font-size="14.00"> v3</text>
<text text-anchor="start" x="195.923" y="-990.3" font-family="Times,serif" font-size="14.00"> v4</text>
<text text-anchor="start" x="195.923" y="-975.3" font-family="Times,serif" font-size="14.00"> v5</text>
<text text-anchor="start" x="195.923" y="-960.3" font-family="Times,serif" font-size="14.00"> scanf(&quot;%d %d %d %d %d&quot;, &amp;(v5), &amp;(v4), &amp;(v3), &amp;(v2), &amp;(v1))</text>
<text text-anchor="start" x="195.923" y="-945.3" font-family="Times,serif" font-size="14.00"> v6</text>
<text text-anchor="start" x="195.923" y="-930.3" font-family="Times,serif" font-size="14.00"> v7 = (PtrToIntCastExpr&lt;int32&gt;(&amp;(v6)) &#45; 32)</text>
<text text-anchor="start" x="195.923" y="-915.3" font-family="Times,serif" font-size="14.00"> v8 = 7</text>
<text text-anchor="start" x="195.923" y="-900.3" font-family="Times,serif" font-size="14.00"> v9 = 10</text>
<text text-anchor="start" x="195.923" y="-885.3" font-family="Times,serif" font-size="14.00"> v10 = 1</text>
</g>
<!-- Node0x219bf40&#45;&gt;Node0x217f650 -->
<g id="edge1" class="edge"><title>Node0x219bf40&#45;&gt;Node0x217f650</title>
<path fill="none" stroke="black" d="M634.423,-1148.21C634.423,-1140.69 634.423,-1131.17 634.423,-1120.57"/>
<polygon fill="black" stroke="black" points="637.923,-1120.56 634.423,-1110.56 630.923,-1120.56 637.923,-1120.56"/>
</g>
<!-- Node0x213e2d0 -->
<g id="node3" class="node"><title>Node0x213e2d0</title>
<polygon fill="none" stroke="black" points="585.923,-803.5 585.923,-839.5 682.923,-839.5 682.923,-803.5 585.923,-803.5"/>
<text text-anchor="start" x="593.923" y="-817.8" font-family="Times,serif" font-size="14.00">while True:</text>
</g>
<!-- Node0x217f650&#45;&gt;Node0x213e2d0 -->
<g id="edge2" class="edge"><title>Node0x217f650&#45;&gt;Node0x213e2d0</title>
<path fill="none" stroke="black" d="M634.423,-877.386C634.423,-867.423 634.423,-858.097 634.423,-850.06"/>
<polygon fill="black" stroke="black" points="637.923,-849.96 634.423,-839.96 630.923,-849.96 637.923,-849.96"/>
</g>
<!-- Node0x21b22f0 -->
<g id="node4" class="node"><title>Node0x21b22f0</title>
<polygon fill="none" stroke="black" points="251.423,-713.5 251.423,-751.5 665.423,-751.5 665.423,-713.5 251.423,-713.5"/>
<text text-anchor="start" x="259.423" y="-736.3" font-family="Times,serif" font-size="14.00">v11 = *(IntToPtrCastExpr&lt;ptr&gt;((v7 + (4 * v10))))</text>
<text text-anchor="start" x="259.423" y="-721.3" font-family="Times,serif" font-size="14.00"> v12 = *(IntToPtrCastExpr&lt;ptr&gt;((v7 + (4 * (v10 &#45; 1)))))</text>
</g>
<!-- Node0x213e2d0&#45;&gt;Node0x21b22f0 -->
<g id="edge3" class="edge"><title>Node0x213e2d0&#45;&gt;Node0x21b22f0</title>
<path fill="none" stroke="black" d="M599.651,-803.312C572.233,-789.758 533.773,-770.747 503.91,-755.985"/>
<polygon fill="black" stroke="black" points="505.456,-752.845 494.94,-751.551 502.354,-759.12 505.456,-752.845"/>
<text text-anchor="middle" x="579.423" y="-773.8" font-family="Times,serif" font-size="14.00">True</text>
</g>
<!-- Node0x21b23e0 -->
<g id="node5" class="node"><title>Node0x21b23e0</title>
<polygon fill="none" stroke="black" points="346.423,-639.5 346.423,-675.5 570.423,-675.5 570.423,-639.5 346.423,-639.5"/>
<text text-anchor="start" x="354.423" y="-653.8" font-family="Times,serif" font-size="14.00">if (v11 == ((v12 * v8) + v9)):</text>
</g>
<!-- Node0x21b22f0&#45;&gt;Node0x21b23e0 -->
<g id="edge4" class="edge"><title>Node0x21b22f0&#45;&gt;Node0x21b23e0</title>
<path fill="none" stroke="black" d="M458.423,-713.455C458.423,-705.201 458.423,-695.238 458.423,-686.074"/>
<polygon fill="black" stroke="black" points="461.923,-685.835 458.423,-675.835 454.923,-685.835 461.923,-685.835"/>
</g>
<!-- Node0x21e7a60 -->
<g id="node6" class="node"><title>Node0x21e7a60</title>
<polygon fill="none" stroke="black" points="450.423,-549.5 450.423,-587.5 584.423,-587.5 584.423,-549.5 450.423,-549.5"/>
<text text-anchor="start" x="458.423" y="-572.3" font-family="Times,serif" font-size="14.00">v13 = (v10 + 1)</text>
<text text-anchor="start" x="458.423" y="-557.3" font-family="Times,serif" font-size="14.00"> v14 = (v9 ^ v8)</text>
</g>
<!-- Node0x21b23e0&#45;&gt;Node0x21e7a60 -->
<g id="edge5" class="edge"><title>Node0x21b23e0&#45;&gt;Node0x21e7a60</title>
<path fill="none" stroke="black" d="M470.079,-639.312C478.478,-626.927 489.968,-609.984 499.525,-595.891"/>
<polygon fill="black" stroke="black" points="502.465,-597.792 505.181,-587.551 496.672,-593.863 502.465,-597.792"/>
<text text-anchor="middle" x="581.923" y="-609.8" font-family="Times,serif" font-size="14.00">v11 == ((v12 * v8) + v9)</text>
</g>
<!-- Node0x20f87b0 -->
<g id="node7" class="node"><title>Node0x20f87b0</title>
<polygon fill="none" stroke="black" points="99.4228,-549.5 99.4228,-587.5 413.423,-587.5 413.423,-549.5 99.4228,-549.5"/>
<text text-anchor="start" x="107.423" y="-572.3" font-family="Times,serif" font-size="14.00">0x8048906:</text>
<text text-anchor="start" x="107.423" y="-557.3" font-family="Times,serif" font-size="14.00"> if (*(IntToPtrCastExpr&lt;ptr&gt;(20)) != v1):</text>
</g>
<!-- Node0x21b23e0&#45;&gt;Node0x20f87b0 -->
<g id="edge6" class="edge"><title>Node0x21b23e0&#45;&gt;Node0x20f87b0</title>
<path fill="none" stroke="black" d="M350.445,-639.406C335.123,-634.689 319.985,-628.672 306.423,-621 294.983,-614.529 284.483,-604.648 276.089,-595.266"/>
<polygon fill="black" stroke="black" points="278.705,-592.939 269.56,-587.588 273.372,-597.474 278.705,-592.939"/>
<text text-anchor="middle" x="392.923" y="-609.8" font-family="Times,serif" font-size="14.00">v11 != ((v12 * v8) + v9)</text>
</g>
<!-- Node0x2199c10 -->
<g id="node8" class="node"><title>Node0x2199c10</title>
<polygon fill="none" stroke="black" points="479.423,-460.5 479.423,-496.5 593.423,-496.5 593.423,-460.5 479.423,-460.5"/>
<text text-anchor="start" x="487.423" y="-474.8" font-family="Times,serif" font-size="14.00">if (v13 &gt;= 5):</text>
</g>
<!-- Node0x21e7a60&#45;&gt;Node0x2199c10 -->
<g id="edge7" class="edge"><title>Node0x21e7a60&#45;&gt;Node0x2199c10</title>
<path fill="none" stroke="black" d="M521.36,-549.266C524.027,-536.91 527.599,-520.368 530.595,-506.493"/>
<polygon fill="black" stroke="black" points="534.059,-507.03 532.749,-496.516 527.217,-505.552 534.059,-507.03"/>
</g>
<!-- Node0x21b6770 -->
<g id="node9" class="node"><title>Node0x21b6770</title>
<polygon fill="none" stroke="black" points="290.923,-459.5 290.923,-497.5 439.923,-497.5 439.923,-459.5 290.923,-459.5"/>
<text text-anchor="start" x="298.923" y="-482.3" font-family="Times,serif" font-size="14.00">0x8048912:</text>
<text text-anchor="start" x="298.923" y="-467.3" font-family="Times,serif" font-size="14.00"> __stack_chk_fail()</text>
</g>
<!-- Node0x20f87b0&#45;&gt;Node0x21b6770 -->
<g id="edge8" class="edge"><title>Node0x20f87b0&#45;&gt;Node0x21b6770</title>
<path fill="none" stroke="black" d="M251.919,-549.17C250.403,-538.513 250.554,-525.379 257.423,-516 263.715,-507.409 272.133,-500.817 281.505,-495.763"/>
<polygon fill="black" stroke="black" points="283.214,-498.826 290.745,-491.373 280.211,-492.503 283.214,-498.826"/>
<text text-anchor="middle" x="389.923" y="-519.8" font-family="Times,serif" font-size="14.00">*(IntToPtrCastExpr&lt;ptr&gt;(20)) != v1</text>
</g>
<!-- Node0x214cd50 -->
<g id="node10" class="node"><title>Node0x214cd50</title>
<polygon fill="none" stroke="black" points="177.923,-354.5 177.923,-392.5 278.923,-392.5 278.923,-354.5 177.923,-354.5"/>
<text text-anchor="start" x="185.923" y="-377.3" font-family="Times,serif" font-size="14.00">0x8048917:</text>
<text text-anchor="start" x="185.923" y="-362.3" font-family="Times,serif" font-size="14.00"> return 0</text>
</g>
<!-- Node0x20f87b0&#45;&gt;Node0x214cd50 -->
<g id="edge9" class="edge"><title>Node0x20f87b0&#45;&gt;Node0x214cd50</title>
<path fill="none" stroke="black" d="M144.934,-549.462C88.1023,-537.754 27.4267,-520.473 10.4228,-498 -36.4553,-436.043 88.1989,-400.423 167.849,-384.549"/>
<polygon fill="black" stroke="black" points="168.654,-387.958 177.805,-382.62 167.322,-381.086 168.654,-387.958"/>
<text text-anchor="middle" x="145.923" y="-474.8" font-family="Times,serif" font-size="14.00">*(IntToPtrCastExpr&lt;ptr&gt;(20)) == v1</text>
</g>
<!-- Node0x21bd5d0 -->
<g id="node11" class="node"><title>Node0x21bd5d0</title>
<polygon fill="none" stroke="black" points="445.423,-354.5 445.423,-392.5 613.423,-392.5 613.423,-354.5 445.423,-354.5"/>
<text text-anchor="start" x="453.423" y="-377.3" font-family="Times,serif" font-size="14.00">break &#45;&gt; 0x8048906:</text>
<text text-anchor="start" x="453.423" y="-362.3" font-family="Times,serif" font-size="14.00"> break</text>
</g>
<!-- Node0x2199c10&#45;&gt;Node0x21bd5d0 -->
<g id="edge10" class="edge"><title>Node0x2199c10&#45;&gt;Node0x21bd5d0</title>
<path fill="none" stroke="black" d="M533.09,-460.483C532.034,-454.365 530.993,-447.396 530.423,-441 529.307,-428.497 528.959,-414.619 528.927,-402.79"/>
<polygon fill="black" stroke="black" points="532.428,-402.617 528.974,-392.601 525.428,-402.585 532.428,-402.617"/>
<text text-anchor="middle" x="564.923" y="-429.8" font-family="Times,serif" font-size="14.00">v13 &gt;= 5</text>
</g>
<!-- Node0x20ff890 -->
<g id="node12" class="node"><title>Node0x20ff890</title>
<polygon fill="none" stroke="black" points="638.923,-339.5 638.923,-407.5 733.923,-407.5 733.923,-339.5 638.923,-339.5"/>
<text text-anchor="start" x="646.923" y="-392.3" font-family="Times,serif" font-size="14.00">v8 = v9</text>
<text text-anchor="start" x="646.923" y="-377.3" font-family="Times,serif" font-size="14.00"> v9 = v14</text>
<text text-anchor="start" x="646.923" y="-362.3" font-family="Times,serif" font-size="14.00"> v10 = v13</text>
<text text-anchor="start" x="646.923" y="-347.3" font-family="Times,serif" font-size="14.00"> continue</text>
</g>
<!-- Node0x2199c10&#45;&gt;Node0x20ff890 -->
<g id="edge11" class="edge"><title>Node0x2199c10&#45;&gt;Node0x20ff890</title>
<path fill="none" stroke="black" d="M567.664,-460.447C577.95,-454.558 589.332,-447.74 599.423,-441 611.882,-432.678 624.916,-423.177 636.989,-414.012"/>
<polygon fill="black" stroke="black" points="639.367,-416.6 645.176,-407.74 635.109,-411.044 639.367,-416.6"/>
<text text-anchor="middle" x="647.923" y="-429.8" font-family="Times,serif" font-size="14.00">v13 &lt; 5</text>
</g>
<!-- Node0x21b6770&#45;&gt;Node0x214cd50 -->
<g id="edge12" class="edge"><title>Node0x21b6770&#45;&gt;Node0x214cd50</title>
<path fill="none" stroke="black" d="M341.245,-459.323C318.885,-442.511 285.481,-417.398 260.819,-398.856"/>
<polygon fill="black" stroke="black" points="262.916,-396.054 252.819,-392.842 258.709,-401.649 262.916,-396.054"/>
</g>
<!-- Node0x219cfc0 -->
<g id="node13" class="node"><title>Node0x219cfc0</title>
<polygon fill="none" stroke="black" points="227.423,-23.5 227.423,-59.5 281.423,-59.5 281.423,-23.5 227.423,-23.5"/>
<text text-anchor="start" x="235.423" y="-37.8" font-family="Times,serif" font-size="14.00">exit:</text>
</g>
<!-- Node0x214cd50&#45;&gt;Node0x219cfc0 -->
<g id="edge13" class="edge"><title>Node0x214cd50&#45;&gt;Node0x219cfc0</title>
<path fill="none" stroke="black" d="M228.423,-354.431C228.423,-336.45 228.423,-308.068 228.423,-283.5 228.423,-283.5 228.423,-283.5 228.423,-115.5 228.423,-99.3695 234.126,-82.3357 240.19,-68.7829"/>
<polygon fill="black" stroke="black" points="243.429,-70.1231 244.593,-59.5924 237.116,-67.0986 243.429,-70.1231"/>
</g>
<!-- Node0x219a0f0 -->
<g id="node14" class="node"><title>Node0x219a0f0</title>
<polygon fill="none" stroke="black" points="372.423,-263.5 372.423,-301.5 686.423,-301.5 686.423,-263.5 372.423,-263.5"/>
<text text-anchor="start" x="380.423" y="-286.3" font-family="Times,serif" font-size="14.00">0x8048906:</text>
<text text-anchor="start" x="380.423" y="-271.3" font-family="Times,serif" font-size="14.00"> if (*(IntToPtrCastExpr&lt;ptr&gt;(20)) != v1):</text>
</g>
<!-- Node0x21bd5d0&#45;&gt;Node0x219a0f0 -->
<g id="edge14" class="edge"><title>Node0x21bd5d0&#45;&gt;Node0x219a0f0</title>
<path fill="none" stroke="black" d="M529.423,-354.49C529.423,-342.266 529.423,-325.849 529.423,-311.882"/>
<polygon fill="black" stroke="black" points="532.923,-311.789 529.423,-301.789 525.923,-311.789 532.923,-311.789"/>
</g>
<!-- Node0x20ff890&#45;&gt;Node0x213e2d0 -->
<g id="edge15" class="edge"><title>Node0x20ff890&#45;&gt;Node0x213e2d0</title>
<path fill="none" stroke="black" d="M689.841,-407.86C691.618,-428.003 693.423,-454.2 693.423,-477.5 693.423,-733.5 693.423,-733.5 693.423,-733.5 693.423,-757.653 677.655,-780.084 662.422,-796.119"/>
<polygon fill="black" stroke="black" points="659.671,-793.919 655.058,-803.457 664.612,-798.877 659.671,-793.919"/>
</g>
<!-- Node0x219eea0 -->
<g id="node15" class="node"><title>Node0x219eea0</title>
<polygon fill="none" stroke="black" points="581.923,-173.5 581.923,-211.5 730.923,-211.5 730.923,-173.5 581.923,-173.5"/>
<text text-anchor="start" x="589.923" y="-196.3" font-family="Times,serif" font-size="14.00">0x8048912:</text>
<text text-anchor="start" x="589.923" y="-181.3" font-family="Times,serif" font-size="14.00"> __stack_chk_fail()</text>
</g>
<!-- Node0x219a0f0&#45;&gt;Node0x219eea0 -->
<g id="edge16" class="edge"><title>Node0x219a0f0&#45;&gt;Node0x219eea0</title>
<path fill="none" stroke="black" d="M555.43,-263.48C574.564,-250.221 600.775,-232.059 621.699,-217.561"/>
<polygon fill="black" stroke="black" points="623.788,-220.371 630.014,-211.799 619.801,-214.617 623.788,-220.371"/>
<text text-anchor="middle" x="733.923" y="-233.8" font-family="Times,serif" font-size="14.00">*(IntToPtrCastExpr&lt;ptr&gt;(20)) != v1</text>
</g>
<!-- Node0x2146df0 -->
<g id="node16" class="node"><title>Node0x2146df0</title>
<polygon fill="none" stroke="black" points="256.923,-97.5 256.923,-135.5 357.923,-135.5 357.923,-97.5 256.923,-97.5"/>
<text text-anchor="start" x="264.923" y="-120.3" font-family="Times,serif" font-size="14.00">0x8048917:</text>
<text text-anchor="start" x="264.923" y="-105.3" font-family="Times,serif" font-size="14.00"> return 1</text>
</g>
<!-- Node0x219a0f0&#45;&gt;Node0x2146df0 -->
<g id="edge17" class="edge"><title>Node0x219a0f0&#45;&gt;Node0x2146df0</title>
<path fill="none" stroke="black" d="M430.658,-263.482C376.653,-251.403 317.524,-233.74 301.423,-212 287.445,-193.127 290.937,-165.888 296.753,-145.498"/>
<polygon fill="black" stroke="black" points="300.134,-146.414 299.827,-135.824 293.463,-144.295 300.134,-146.414"/>
<text text-anchor="middle" x="436.923" y="-188.8" font-family="Times,serif" font-size="14.00">*(IntToPtrCastExpr&lt;ptr&gt;(20)) == v1</text>
</g>
<!-- Node0x219eea0&#45;&gt;Node0x2146df0 -->
<g id="edge18" class="edge"><title>Node0x219eea0&#45;&gt;Node0x2146df0</title>
<path fill="none" stroke="black" d="M581.554,-175.625C517.748,-162.096 427.215,-142.9 367.917,-130.327"/>
<polygon fill="black" stroke="black" points="368.459,-126.864 357.95,-128.214 367.007,-133.712 368.459,-126.864"/>
</g>
<!-- Node0x2146df0&#45;&gt;Node0x219cfc0 -->
<g id="edge19" class="edge"><title>Node0x2146df0&#45;&gt;Node0x219cfc0</title>
<path fill="none" stroke="black" d="M294.322,-97.4551C287.873,-88.5727 279.987,-77.7116 272.935,-67.9975"/>
<polygon fill="black" stroke="black" points="275.716,-65.8705 267.008,-59.8347 270.051,-69.9832 275.716,-65.8705"/>
</g>
</g>
</svg>
