<?xml version="1.0" encoding="UTF-8" standalone="no"?>
<!DOCTYPE svg PUBLIC "-//W3C//DTD SVG 1.1//EN"
 "http://www.w3.org/Graphics/SVG/1.1/DTD/svg11.dtd">
<!-- Generated by graphviz version 2.38.0 (20140413.2041)
 -->
<!-- Title: Control&#45;flow graph for function &#39;rabbit_hole(a1)&#39;. Pages: 1 -->
<svg width="978pt" height="624pt"
 viewBox="0.00 0.00 977.50 624.00" xmlns="http://www.w3.org/2000/svg" xmlns:xlink="http://www.w3.org/1999/xlink">
<g id="graph0" class="graph" transform="scale(1 1) rotate(0) translate(4 620)">
<title>Control&#45;flow graph for function &#39;rabbit_hole(a1)&#39;.</title>
<polygon fill="white" stroke="none" points="-4,4 -4,-620 973.5,-620 973.5,4 -4,4"/>
<text text-anchor="middle" x="484.75" y="-7.8" font-family="Times,serif" font-size="14.00">Control&#45;flow graph for function &#39;rabbit_hole(a1)&#39;.</text>
<!-- Node0x20e0de0 -->
<g id="node1" class="node"><title>Node0x20e0de0</title>
<polygon fill="none" stroke="black" points="238,-577.5 238,-615.5 297,-615.5 297,-577.5 238,-577.5"/>
<text text-anchor="start" x="246" y="-600.3" font-family="Times,serif" font-size="14.00">entry:</text>
<text text-anchor="start" x="246" y="-585.3" font-family="Times,serif" font-size="14.00"> a1</text>
</g>
<!-- Node0x20df370 -->
<g id="node2" class="node"><title>Node0x20df370</title>
<polygon fill="none" stroke="black" points="223,-503.5 223,-539.5 312,-539.5 312,-503.5 223,-503.5"/>
<text text-anchor="start" x="231" y="-517.8" font-family="Times,serif" font-size="14.00">result = 1</text>
</g>
<!-- Node0x20e0de0&#45;&gt;Node0x20df370 -->
<g id="edge1" class="edge"><title>Node0x20e0de0&#45;&gt;Node0x20df370</title>
<path fill="none" stroke="black" d="M267.5,-577.455C267.5,-569.201 267.5,-559.238 267.5,-550.074"/>
<polygon fill="black" stroke="black" points="271,-549.835 267.5,-539.835 264,-549.835 271,-549.835"/>
</g>
<!-- Node0x20ddc70 -->
<g id="node3" class="node"><title>Node0x20ddc70</title>
<polygon fill="none" stroke="black" points="221,-429.5 221,-465.5 314,-465.5 314,-429.5 221,-429.5"/>
<text text-anchor="start" x="229" y="-443.8" font-family="Times,serif" font-size="14.00">if (a1 &gt; 0):</text>
</g>
<!-- Node0x20df370&#45;&gt;Node0x20ddc70 -->
<g id="edge2" class="edge"><title>Node0x20df370&#45;&gt;Node0x20ddc70</title>
<path fill="none" stroke="black" d="M267.5,-503.437C267.5,-495.307 267.5,-485.376 267.5,-476.205"/>
<polygon fill="black" stroke="black" points="271,-475.941 267.5,-465.941 264,-475.941 271,-475.941"/>
</g>
<!-- Node0x2132c90 -->
<g id="node4" class="node"><title>Node0x2132c90</title>
<polygon fill="none" stroke="black" points="0,-339.5 0,-377.5 275,-377.5 275,-339.5 0,-339.5"/>
<text text-anchor="start" x="8" y="-362.3" font-family="Times,serif" font-size="14.00">v1 = rabbit_hole((a1 &#45; 2))</text>
<text text-anchor="start" x="8" y="-347.3" font-family="Times,serif" font-size="14.00"> result = (rabbit_hole((a1 &#45; 4)) + v1)</text>
</g>
<!-- Node0x20ddc70&#45;&gt;Node0x2132c90 -->
<g id="edge3" class="edge"><title>Node0x20ddc70&#45;&gt;Node0x2132c90</title>
<path fill="none" stroke="black" d="M241.816,-429.312C222.088,-416.109 194.62,-397.727 172.823,-383.139"/>
<polygon fill="black" stroke="black" points="174.73,-380.204 164.473,-377.551 170.837,-386.022 174.73,-380.204"/>
<text text-anchor="middle" x="238.5" y="-399.8" font-family="Times,serif" font-size="14.00">a1 &gt; 0</text>
</g>
<!-- Node0x20ecb80 -->
<g id="node5" class="node"><title>Node0x20ecb80</title>
<polygon fill="none" stroke="black" points="3,-263.5 3,-301.5 520,-301.5 520,-263.5 3,-263.5"/>
<text text-anchor="start" x="11" y="-286.3" font-family="Times,serif" font-size="14.00">0x8048ca3:</text>
<text text-anchor="start" x="11" y="-271.3" font-family="Times,serif" font-size="14.00"> if (*(IntToPtrCastExpr&lt;ptr&gt;(20)) != *(IntToPtrCastExpr&lt;ptr&gt;(20))):</text>
</g>
<!-- Node0x20ddc70&#45;&gt;Node0x20ecb80 -->
<g id="edge4" class="edge"><title>Node0x20ddc70&#45;&gt;Node0x20ecb80</title>
<path fill="none" stroke="black" d="M273.622,-429.298C280.38,-408.011 289.552,-370.693 283.5,-339 281.706,-329.606 278.347,-319.773 274.784,-311.039"/>
<polygon fill="black" stroke="black" points="277.936,-309.509 270.748,-301.726 271.513,-312.293 277.936,-309.509"/>
<text text-anchor="middle" x="315.5" y="-354.8" font-family="Times,serif" font-size="14.00">a1 &lt;= 0</text>
</g>
<!-- Node0x2132c90&#45;&gt;Node0x20ecb80 -->
<g id="edge5" class="edge"><title>Node0x2132c90&#45;&gt;Node0x20ecb80</title>
<path fill="none" stroke="black" d="M167.834,-339.398C184.197,-329.632 204.583,-317.467 222.154,-306.981"/>
<polygon fill="black" stroke="black" points="224.256,-309.802 231.05,-301.672 220.669,-303.791 224.256,-309.802"/>
</g>
<!-- Node0x20ed610 -->
<g id="node6" class="node"><title>Node0x20ed610</title>
<polygon fill="none" stroke="black" points="132,-173.5 132,-211.5 281,-211.5 281,-173.5 132,-173.5"/>
<text text-anchor="start" x="140" y="-196.3" font-family="Times,serif" font-size="14.00">0x8048caf:</text>
<text text-anchor="start" x="140" y="-181.3" font-family="Times,serif" font-size="14.00"> __stack_chk_fail()</text>
</g>
<!-- Node0x20ecb80&#45;&gt;Node0x20ed610 -->
<g id="edge6" class="edge"><title>Node0x20ecb80&#45;&gt;Node0x20ed610</title>
<path fill="none" stroke="black" d="M56.2047,-263.41C40.3898,-258.622 28.0241,-252.591 21.5,-245 17.1548,-239.944 17.2667,-235.15 21.5,-230 34.5866,-214.079 79.55,-204.99 121.869,-199.863"/>
<polygon fill="black" stroke="black" points="122.442,-203.321 131.979,-198.705 121.645,-196.366 122.442,-203.321"/>
<text text-anchor="middle" x="255" y="-233.8" font-family="Times,serif" font-size="14.00">*(IntToPtrCastExpr&lt;ptr&gt;(20)) != *(IntToPtrCastExpr&lt;ptr&gt;(20))</text>
</g>
<!-- Node0x21210a0 -->
<g id="node7" class="node"><title>Node0x21210a0</title>
<polygon fill="none" stroke="black" points="366,-97.5 366,-135.5 479,-135.5 479,-97.5 366,-97.5"/>
<text text-anchor="start" x="374" y="-120.3" font-family="Times,serif" font-size="14.00">0x8048cb4:</text>
<text text-anchor="start" x="374" y="-105.3" font-family="Times,serif" font-size="14.00"> return result</text>
</g>
<!-- Node0x20ecb80&#45;&gt;Node0x21210a0 -->
<g id="edge7" class="edge"><title>Node0x20ecb80&#45;&gt;Node0x21210a0</title>
<path fill="none" stroke="black" d="M453.332,-263.388C469.425,-258.617 482.028,-252.596 488.5,-245 515.211,-213.651 479.945,-169.654 451.58,-142.396"/>
<polygon fill="black" stroke="black" points="453.893,-139.766 444.19,-135.51 449.121,-144.888 453.893,-139.766"/>
<text text-anchor="middle" x="733" y="-188.8" font-family="Times,serif" font-size="14.00">*(IntToPtrCastExpr&lt;ptr&gt;(20)) == *(IntToPtrCastExpr&lt;ptr&gt;(20))</text>
</g>
<!-- Node0x20ed610&#45;&gt;Node0x21210a0 -->
<g id="edge8" class="edge"><title>Node0x20ed610&#45;&gt;Node0x21210a0</title>
<path fill="none" stroke="black" d="M259.063,-173.492C289.506,-163.063 328.011,-149.871 359.999,-138.912"/>
<polygon fill="black" stroke="black" points="361.375,-142.141 369.701,-135.589 359.106,-135.519 361.375,-142.141"/>
</g>
<!-- Node0x20dfd80 -->
<g id="node8" class="node"><title>Node0x20dfd80</title>
<polygon fill="none" stroke="black" points="395.5,-23.5 395.5,-59.5 449.5,-59.5 449.5,-23.5 395.5,-23.5"/>
<text text-anchor="start" x="403.5" y="-37.8" font-family="Times,serif" font-size="14.00">exit:</text>
</g>
<!-- Node0x21210a0&#45;&gt;Node0x20dfd80 -->
<g id="edge9" class="edge"><title>Node0x21210a0&#45;&gt;Node0x20dfd80</title>
<path fill="none" stroke="black" d="M422.5,-97.4551C422.5,-89.2008 422.5,-79.2377 422.5,-70.0742"/>
<polygon fill="black" stroke="black" points="426,-69.8347 422.5,-59.8347 419,-69.8347 426,-69.8347"/>
</g>
</g>
</svg>
