<?xml version="1.0" encoding="UTF-8" standalone="no"?>
<!DOCTYPE svg PUBLIC "-//W3C//DTD SVG 1.1//EN"
 "http://www.w3.org/Graphics/SVG/1.1/DTD/svg11.dtd">
<!-- Generated by graphviz version 2.38.0 (20140413.2041)
 -->
<!-- Title: Control&#45;flow graph for function &#39;main(argc, **argv)&#39;. Pages: 1 -->
<svg width="1399pt" height="1883pt"
 viewBox="0.00 0.00 1399.17 1883.00" xmlns="http://www.w3.org/2000/svg" xmlns:xlink="http://www.w3.org/1999/xlink">
<g id="graph0" class="graph" transform="scale(1 1) rotate(0) translate(4 1879)">
<title>Control&#45;flow graph for function &#39;main(argc, **argv)&#39;.</title>
<polygon fill="white" stroke="none" points="-4,4 -4,-1879 1395.17,-1879 1395.17,4 -4,4"/>
<text text-anchor="middle" x="695.584" y="-7.8" font-family="Times,serif" font-size="14.00">Control&#45;flow graph for function &#39;main(argc, **argv)&#39;.</text>
<!-- Node0x20d2560 -->
<g id="node1" class="node"><title>Node0x20d2560</title>
<polygon fill="none" stroke="black" points="160.668,-1821.5 160.668,-1874.5 219.668,-1874.5 219.668,-1821.5 160.668,-1821.5"/>
<text text-anchor="start" x="168.668" y="-1859.3" font-family="Times,serif" font-size="14.00">entry:</text>
<text text-anchor="start" x="168.668" y="-1844.3" font-family="Times,serif" font-size="14.00"> argc</text>
<text text-anchor="start" x="168.668" y="-1829.3" font-family="Times,serif" font-size="14.00"> argv</text>
</g>
<!-- Node0x211fc50 -->
<g id="node2" class="node"><title>Node0x211fc50</title>
<polygon fill="none" stroke="black" points="108.668,-1745.5 108.668,-1783.5 271.668,-1783.5 271.668,-1745.5 108.668,-1745.5"/>
<text text-anchor="start" x="116.668" y="-1768.3" font-family="Times,serif" font-size="14.00">0x8048f02:</text>
<text text-anchor="start" x="116.668" y="-1753.3" font-family="Times,serif" font-size="14.00"> if (ptrace(0) == &#45;1):</text>
</g>
<!-- Node0x20d2560&#45;&gt;Node0x211fc50 -->
<g id="edge1" class="edge"><title>Node0x20d2560&#45;&gt;Node0x211fc50</title>
<path fill="none" stroke="black" d="M190.168,-1821.21C190.168,-1812.53 190.168,-1802.79 190.168,-1793.91"/>
<polygon fill="black" stroke="black" points="193.668,-1793.64 190.168,-1783.64 186.668,-1793.64 193.668,-1793.64"/>
</g>
<!-- Node0x21116d0 -->
<g id="node3" class="node"><title>Node0x21116d0</title>
<polygon fill="none" stroke="black" points="52.1677,-1403.5 52.1677,-1456.5 210.168,-1456.5 210.168,-1403.5 52.1677,-1403.5"/>
<text text-anchor="start" x="60.1677" y="-1441.3" font-family="Times,serif" font-size="14.00">0x8048f33:</text>
<text text-anchor="start" x="60.1677" y="-1426.3" font-family="Times,serif" font-size="14.00"> exit(0)</text>
<text text-anchor="start" x="60.1677" y="-1411.3" font-family="Times,serif" font-size="14.00"> # UNREACHABLE</text>
</g>
<!-- Node0x211fc50&#45;&gt;Node0x21116d0 -->
<g id="edge2" class="edge"><title>Node0x211fc50&#45;&gt;Node0x21116d0</title>
<path fill="none" stroke="black" d="M109.614,-1745.37C82.5089,-1735.01 55.1231,-1718.91 39.1677,-1694 -13.3335,-1612.04 -12.7277,-1557.34 39.1677,-1475 41.858,-1470.73 45.0895,-1466.87 48.7085,-1463.37"/>
<polygon fill="black" stroke="black" points="51.2362,-1465.82 56.6316,-1456.7 46.7277,-1460.46 51.2362,-1465.82"/>
<text text-anchor="middle" x="129.668" y="-1715.8" font-family="Times,serif" font-size="14.00">ptrace(0) == &#45;1</text>
</g>
<!-- Node0x210a790 -->
<g id="node4" class="node"><title>Node0x210a790</title>
<polygon fill="none" stroke="black" points="48.6677,-1475.5 48.6677,-1693.5 1085.67,-1693.5 1085.67,-1475.5 48.6677,-1475.5"/>
<text text-anchor="start" x="56.6677" y="-1678.3" font-family="Times,serif" font-size="14.00">0x8048f3d:</text>
<text text-anchor="start" x="56.6677" y="-1663.3" font-family="Times,serif" font-size="14.00"> setvbuf(g2, NULL, 2, 0)</text>
<text text-anchor="start" x="56.6677" y="-1648.3" font-family="Times,serif" font-size="14.00"> setvbuf(IntToPtrCastExpr&lt;ptr&gt;(g3), NULL, 2, 0)</text>
<text text-anchor="start" x="56.6677" y="-1633.3" font-family="Times,serif" font-size="14.00"> puts(&quot; Welcome to &quot;)</text>
<text text-anchor="start" x="56.6677" y="-1618.3" font-family="Times,serif" font-size="14.00"> puts(&quot; ______ __ __ __ __ ______ __ __ __ ______ ______&quot;)</text>
<text text-anchor="start" x="56.6677" y="-1603.3" font-family="Times,serif" font-size="14.00"> puts(&quot;/\\ ___\\ /\\ \\/ / /\\ \\_\\ \\ /\\ == \\ /\\ \\ /\\ \\ /\\ \\ /\\ __ \\ /\\ == \\&quot;)</text>
<text text-anchor="start" x="56.6677" y="-1588.3" font-family="Times,serif" font-size="14.00"> puts(&quot;\\ \\___ \\ \\ \\ _\&quot;&#45;. \\ \\____ \\ \\ \\ _&#45;/ \\ \\ \\ \\ \\ \\____ \\ \\ \\____ \\ \\ __ \\ \\ \\ __&lt;&quot;)</text>
<text text-anchor="start" x="56.6677" y="-1573.3" font-family="Times,serif" font-size="14.00"> puts(&quot; \\/\\_____\\ \\ \\_\\ \\_\\ \\/\\_____\\ \\ \\_\\ \\ \\_\\ \\ \\_____\\ \\ \\_____\\ \\ \\_\\ \\_\\ \\ \\_\\ \\_\\&quot;)</text>
<text text-anchor="start" x="56.6677" y="-1558.3" font-family="Times,serif" font-size="14.00"> puts(&quot; \\/_____/ \\/_/\\/_/ \\/_____/ \\/_/ \\/_/ \\/_____/ \\/_____/ \\/_/\\/_/ \\/_/ /_/&quot;)</text>
<text text-anchor="start" x="56.6677" y="-1543.3" font-family="Times,serif" font-size="14.00"> puts(&quot;================================================================================&quot;)</text>
<text text-anchor="start" x="56.6677" y="-1528.3" font-family="Times,serif" font-size="14.00"> puts(&quot; Home of the legendary Pokemon, Rayquaza &quot;)</text>
<text text-anchor="start" x="56.6677" y="-1513.3" font-family="Times,serif" font-size="14.00"> puts(&quot;================================================================================&quot;)</text>
<text text-anchor="start" x="56.6677" y="-1498.3" font-family="Times,serif" font-size="14.00"> puts(&quot;There are 5 Levels to climb. Each level requires a specifc code to unlock the next level.&quot;)</text>
<text text-anchor="start" x="56.6677" y="-1483.3" font-family="Times,serif" font-size="14.00"> puts(&quot;Your goal is to reach the top, and catch the legendary Rayquaza... Good luck!&quot;)</text>
</g>
<!-- Node0x211fc50&#45;&gt;Node0x210a790 -->
<g id="edge3" class="edge"><title>Node0x211fc50&#45;&gt;Node0x210a790</title>
<path fill="none" stroke="black" d="M228.391,-1745.45C253.867,-1733.42 289.734,-1716.49 328.669,-1698.11"/>
<polygon fill="black" stroke="black" points="330.54,-1701.09 338.088,-1693.66 327.551,-1694.76 330.54,-1701.09"/>
<text text-anchor="middle" x="345.668" y="-1715.8" font-family="Times,serif" font-size="14.00">ptrace(0) != &#45;1</text>
</g>
<!-- Node0x20df180 -->
<g id="node5" class="node"><title>Node0x20df180</title>
<polygon fill="none" stroke="black" points="304.168,-23.5 304.168,-59.5 358.168,-59.5 358.168,-23.5 304.168,-23.5"/>
<text text-anchor="start" x="312.168" y="-37.8" font-family="Times,serif" font-size="14.00">exit:</text>
</g>
<!-- Node0x21116d0&#45;&gt;Node0x20df180 -->
<g id="edge4" class="edge"><title>Node0x21116d0&#45;&gt;Node0x20df180</title>
<path fill="none" stroke="black" d="M141.913,-1403.49C149.809,-1382.43 159.168,-1351.55 159.168,-1323.5 159.168,-1323.5 159.168,-1323.5 159.168,-115.5 159.168,-57.504 243.056,-44.9098 293.662,-42.5886"/>
<polygon fill="black" stroke="black" points="294.04,-46.0778 303.914,-42.2366 293.799,-39.082 294.04,-46.0778"/>
</g>
<!-- Node0x210fa30 -->
<g id="node6" class="node"><title>Node0x210fa30</title>
<polygon fill="none" stroke="black" points="416.168,-1348.5 416.168,-1384.5 574.168,-1384.5 574.168,-1348.5 416.168,-1348.5"/>
<text text-anchor="start" x="424.168" y="-1362.8" font-family="Times,serif" font-size="14.00">if (levelone() == 0):</text>
</g>
<!-- Node0x210a790&#45;&gt;Node0x210fa30 -->
<g id="edge5" class="edge"><title>Node0x210a790&#45;&gt;Node0x210fa30</title>
<path fill="none" stroke="black" d="M531.062,-1475.18C521.037,-1445.11 511.022,-1415.06 504.129,-1394.38"/>
<polygon fill="black" stroke="black" points="507.4,-1393.13 500.917,-1384.75 500.759,-1395.34 507.4,-1393.13"/>
</g>
<!-- Node0x2110460 -->
<g id="node7" class="node"><title>Node0x2110460</title>
<polygon fill="none" stroke="black" points="188.168,-1186.5 188.168,-1239.5 346.168,-1239.5 346.168,-1186.5 188.168,-1186.5"/>
<text text-anchor="start" x="196.168" y="-1224.3" font-family="Times,serif" font-size="14.00">0x8049039:</text>
<text text-anchor="start" x="196.168" y="-1209.3" font-family="Times,serif" font-size="14.00"> exit(0)</text>
<text text-anchor="start" x="196.168" y="-1194.3" font-family="Times,serif" font-size="14.00"> # UNREACHABLE</text>
</g>
<!-- Node0x210fa30&#45;&gt;Node0x2110460 -->
<g id="edge6" class="edge"><title>Node0x210fa30&#45;&gt;Node0x2110460</title>
<path fill="none" stroke="black" d="M426.265,-1348.45C410.41,-1343.43 393.89,-1337.29 379.168,-1330 356.618,-1318.84 351.394,-1314.35 333.168,-1297 317.752,-1282.33 302.801,-1263.98 291.039,-1248.28"/>
<polygon fill="black" stroke="black" points="293.594,-1245.84 284.849,-1239.86 287.954,-1249.99 293.594,-1245.84"/>
<text text-anchor="middle" x="435.168" y="-1318.8" font-family="Times,serif" font-size="14.00">levelone() == 0</text>
</g>
<!-- Node0x210ff90 -->
<g id="node8" class="node"><title>Node0x210ff90</title>
<polygon fill="none" stroke="black" points="342.168,-1258.5 342.168,-1296.5 648.168,-1296.5 648.168,-1258.5 342.168,-1258.5"/>
<text text-anchor="start" x="350.168" y="-1281.3" font-family="Times,serif" font-size="14.00">0x804901e:</text>
<text text-anchor="start" x="350.168" y="-1266.3" font-family="Times,serif" font-size="14.00"> puts(&quot;CrossCTF{xxxxxxxxxxxxxxxxx}&quot;)</text>
</g>
<!-- Node0x210fa30&#45;&gt;Node0x210ff90 -->
<g id="edge7" class="edge"><title>Node0x210fa30&#45;&gt;Node0x210ff90</title>
<path fill="none" stroke="black" d="M495.168,-1348.31C495.168,-1336.51 495.168,-1320.57 495.168,-1306.9"/>
<polygon fill="black" stroke="black" points="498.668,-1306.55 495.168,-1296.55 491.668,-1306.55 498.668,-1306.55"/>
<text text-anchor="middle" x="548.168" y="-1318.8" font-family="Times,serif" font-size="14.00">levelone() != 0</text>
</g>
<!-- Node0x2110460&#45;&gt;Node0x20df180 -->
<g id="edge8" class="edge"><title>Node0x2110460&#45;&gt;Node0x20df180</title>
<path fill="none" stroke="black" d="M262.562,-1186.08C259.178,-1164.78 255.168,-1133.78 255.168,-1106.5 255.168,-1106.5 255.168,-1106.5 255.168,-115.5 255.168,-91.1167 275.767,-72.3361 295.516,-59.9333"/>
<polygon fill="black" stroke="black" points="297.315,-62.9362 304.159,-54.8487 293.765,-56.9029 297.315,-62.9362"/>
</g>
<!-- Node0x210fff0 -->
<g id="node9" class="node"><title>Node0x210fff0</title>
<polygon fill="none" stroke="black" points="416.168,-1131.5 416.168,-1167.5 574.168,-1167.5 574.168,-1131.5 416.168,-1131.5"/>
<text text-anchor="start" x="424.168" y="-1145.8" font-family="Times,serif" font-size="14.00">if (leveltwo() == 0):</text>
</g>
<!-- Node0x210ff90&#45;&gt;Node0x210fff0 -->
<g id="edge9" class="edge"><title>Node0x210ff90&#45;&gt;Node0x210fff0</title>
<path fill="none" stroke="black" d="M495.168,-1258.45C495.168,-1237.35 495.168,-1202.2 495.168,-1177.77"/>
<polygon fill="black" stroke="black" points="498.668,-1177.71 495.168,-1167.71 491.668,-1177.71 498.668,-1177.71"/>
</g>
<!-- Node0x2110500 -->
<g id="node10" class="node"><title>Node0x2110500</title>
<polygon fill="none" stroke="black" points="270.168,-969.5 270.168,-1022.5 428.168,-1022.5 428.168,-969.5 270.168,-969.5"/>
<text text-anchor="start" x="278.168" y="-1007.3" font-family="Times,serif" font-size="14.00">0x804905e:</text>
<text text-anchor="start" x="278.168" y="-992.3" font-family="Times,serif" font-size="14.00"> exit(0)</text>
<text text-anchor="start" x="278.168" y="-977.3" font-family="Times,serif" font-size="14.00"> # UNREACHABLE</text>
</g>
<!-- Node0x210fff0&#45;&gt;Node0x2110500 -->
<g id="edge10" class="edge"><title>Node0x210fff0&#45;&gt;Node0x2110500</title>
<path fill="none" stroke="black" d="M427.886,-1131.42C415.688,-1126.61 403.556,-1120.55 393.168,-1113 367.792,-1094.55 357.048,-1059.54 352.501,-1032.79"/>
<polygon fill="black" stroke="black" points="355.924,-1032.01 350.998,-1022.63 349,-1033.03 355.924,-1032.01"/>
<text text-anchor="middle" x="449.668" y="-1101.8" font-family="Times,serif" font-size="14.00">leveltwo() == 0</text>
</g>
<!-- Node0x2110380 -->
<g id="node11" class="node"><title>Node0x2110380</title>
<polygon fill="none" stroke="black" points="377.168,-1041.5 377.168,-1079.5 683.168,-1079.5 683.168,-1041.5 377.168,-1041.5"/>
<text text-anchor="start" x="385.168" y="-1064.3" font-family="Times,serif" font-size="14.00">0x8049043:</text>
<text text-anchor="start" x="385.168" y="-1049.3" font-family="Times,serif" font-size="14.00"> puts(&quot;CrossCTF{xxxxxxxxxxxxxxxxx}&quot;)</text>
</g>
<!-- Node0x210fff0&#45;&gt;Node0x2110380 -->
<g id="edge11" class="edge"><title>Node0x210fff0&#45;&gt;Node0x2110380</title>
<path fill="none" stroke="black" d="M502.083,-1131.31C506.924,-1119.28 513.497,-1102.94 519.066,-1089.09"/>
<polygon fill="black" stroke="black" points="522.42,-1090.13 522.906,-1079.55 515.926,-1087.52 522.42,-1090.13"/>
<text text-anchor="middle" x="568.668" y="-1101.8" font-family="Times,serif" font-size="14.00">leveltwo() != 0</text>
</g>
<!-- Node0x2110500&#45;&gt;Node0x20df180 -->
<g id="edge12" class="edge"><title>Node0x2110500&#45;&gt;Node0x20df180</title>
<path fill="none" stroke="black" d="M326.39,-969.235C310.886,-949.009 293.168,-919.36 293.168,-889.5 293.168,-889.5 293.168,-889.5 293.168,-115.5 293.168,-98.2708 301.599,-81.0758 310.519,-67.7055"/>
<polygon fill="black" stroke="black" points="313.407,-69.6828 316.367,-59.5097 307.709,-65.6168 313.407,-69.6828"/>
</g>
<!-- Node0x21103e0 -->
<g id="node12" class="node"><title>Node0x21103e0</title>
<polygon fill="none" stroke="black" points="445.168,-914.5 445.168,-950.5 615.168,-950.5 615.168,-914.5 445.168,-914.5"/>
<text text-anchor="start" x="453.168" y="-928.8" font-family="Times,serif" font-size="14.00">if (levelthree() == 0):</text>
</g>
<!-- Node0x2110380&#45;&gt;Node0x21103e0 -->
<g id="edge13" class="edge"><title>Node0x2110380&#45;&gt;Node0x21103e0</title>
<path fill="none" stroke="black" d="M530.168,-1041.45C530.168,-1020.35 530.168,-985.205 530.168,-960.773"/>
<polygon fill="black" stroke="black" points="533.668,-960.71 530.168,-950.71 526.668,-960.71 533.668,-960.71"/>
</g>
<!-- Node0x2111750 -->
<g id="node13" class="node"><title>Node0x2111750</title>
<polygon fill="none" stroke="black" points="308.168,-752.5 308.168,-805.5 466.168,-805.5 466.168,-752.5 308.168,-752.5"/>
<text text-anchor="start" x="316.168" y="-790.3" font-family="Times,serif" font-size="14.00">0x8049083:</text>
<text text-anchor="start" x="316.168" y="-775.3" font-family="Times,serif" font-size="14.00"> exit(0)</text>
<text text-anchor="start" x="316.168" y="-760.3" font-family="Times,serif" font-size="14.00"> # UNREACHABLE</text>
</g>
<!-- Node0x21103e0&#45;&gt;Node0x2111750 -->
<g id="edge14" class="edge"><title>Node0x21103e0&#45;&gt;Node0x2111750</title>
<path fill="none" stroke="black" d="M444.923,-914.611C434.694,-909.863 425.087,-903.783 417.168,-896 396.044,-875.24 389.137,-841.689 387.168,-815.998"/>
<polygon fill="black" stroke="black" points="390.655,-815.672 386.61,-805.88 383.666,-816.057 390.655,-815.672"/>
<text text-anchor="middle" x="479.668" y="-884.8" font-family="Times,serif" font-size="14.00">levelthree() == 0</text>
</g>
<!-- Node0x2110770 -->
<g id="node14" class="node"><title>Node0x2110770</title>
<polygon fill="none" stroke="black" points="415.168,-824.5 415.168,-862.5 721.168,-862.5 721.168,-824.5 415.168,-824.5"/>
<text text-anchor="start" x="423.168" y="-847.3" font-family="Times,serif" font-size="14.00">0x8049068:</text>
<text text-anchor="start" x="423.168" y="-832.3" font-family="Times,serif" font-size="14.00"> puts(&quot;CrossCTF{xxxxxxxxxxxxxxxxx}&quot;)</text>
</g>
<!-- Node0x21103e0&#45;&gt;Node0x2110770 -->
<g id="edge15" class="edge"><title>Node0x21103e0&#45;&gt;Node0x2110770</title>
<path fill="none" stroke="black" d="M537.675,-914.312C542.932,-902.277 550.068,-885.94 556.115,-872.095"/>
<polygon fill="black" stroke="black" points="559.488,-873.116 560.283,-862.551 553.073,-870.314 559.488,-873.116"/>
<text text-anchor="middle" x="611.668" y="-884.8" font-family="Times,serif" font-size="14.00">levelthree() != 0</text>
</g>
<!-- Node0x2111750&#45;&gt;Node0x20df180 -->
<g id="edge16" class="edge"><title>Node0x2111750&#45;&gt;Node0x20df180</title>
<path fill="none" stroke="black" d="M364.39,-752.235C348.886,-732.009 331.168,-702.36 331.168,-672.5 331.168,-672.5 331.168,-672.5 331.168,-115.5 331.168,-100.4 331.168,-83.5422 331.168,-69.8343"/>
<polygon fill="black" stroke="black" points="334.668,-69.6097 331.168,-59.6098 327.668,-69.6098 334.668,-69.6097"/>
</g>
<!-- Node0x21107d0 -->
<g id="node15" class="node"><title>Node0x21107d0</title>
<polygon fill="none" stroke="black" points="487.668,-697.5 487.668,-733.5 648.668,-733.5 648.668,-697.5 487.668,-697.5"/>
<text text-anchor="start" x="495.668" y="-711.8" font-family="Times,serif" font-size="14.00">if (levelfour() == 0):</text>
</g>
<!-- Node0x2110770&#45;&gt;Node0x21107d0 -->
<g id="edge17" class="edge"><title>Node0x2110770&#45;&gt;Node0x21107d0</title>
<path fill="none" stroke="black" d="M568.168,-824.447C568.168,-803.345 568.168,-768.205 568.168,-743.773"/>
<polygon fill="black" stroke="black" points="571.668,-743.71 568.168,-733.71 564.668,-743.71 571.668,-743.71"/>
</g>
<!-- Node0x21117f0 -->
<g id="node16" class="node"><title>Node0x21117f0</title>
<polygon fill="none" stroke="black" points="346.168,-535.5 346.168,-588.5 504.168,-588.5 504.168,-535.5 346.168,-535.5"/>
<text text-anchor="start" x="354.168" y="-573.3" font-family="Times,serif" font-size="14.00">0x80490a8:</text>
<text text-anchor="start" x="354.168" y="-558.3" font-family="Times,serif" font-size="14.00"> exit(0)</text>
<text text-anchor="start" x="354.168" y="-543.3" font-family="Times,serif" font-size="14.00"> # UNREACHABLE</text>
</g>
<!-- Node0x21107d0&#45;&gt;Node0x21117f0 -->
<g id="edge18" class="edge"><title>Node0x21107d0&#45;&gt;Node0x21117f0</title>
<path fill="none" stroke="black" d="M496.472,-697.462C484.939,-692.699 473.682,-686.653 464.168,-679 440.199,-659.719 430.867,-625.144 427.283,-598.742"/>
<polygon fill="black" stroke="black" points="430.75,-598.253 426.139,-588.714 423.795,-599.047 430.75,-598.253"/>
<text text-anchor="middle" x="522.168" y="-667.8" font-family="Times,serif" font-size="14.00">levelfour() == 0</text>
</g>
<!-- Node0x2110c00 -->
<g id="node17" class="node"><title>Node0x2110c00</title>
<polygon fill="none" stroke="black" points="453.168,-607.5 453.168,-645.5 759.168,-645.5 759.168,-607.5 453.168,-607.5"/>
<text text-anchor="start" x="461.168" y="-630.3" font-family="Times,serif" font-size="14.00">0x804908d:</text>
<text text-anchor="start" x="461.168" y="-615.3" font-family="Times,serif" font-size="14.00"> puts(&quot;CrossCTF{xxxxxxxxxxxxxxxxx}&quot;)</text>
</g>
<!-- Node0x21107d0&#45;&gt;Node0x2110c00 -->
<g id="edge19" class="edge"><title>Node0x21107d0&#45;&gt;Node0x2110c00</title>
<path fill="none" stroke="black" d="M575.675,-697.312C580.932,-685.277 588.068,-668.94 594.115,-655.095"/>
<polygon fill="black" stroke="black" points="597.488,-656.116 598.283,-645.551 591.073,-653.314 597.488,-656.116"/>
<text text-anchor="middle" x="645.168" y="-667.8" font-family="Times,serif" font-size="14.00">levelfour() != 0</text>
</g>
<!-- Node0x21117f0&#45;&gt;Node0x20df180 -->
<g id="edge20" class="edge"><title>Node0x21117f0&#45;&gt;Node0x20df180</title>
<path fill="none" stroke="black" d="M402.39,-535.235C386.886,-515.009 369.168,-485.36 369.168,-455.5 369.168,-455.5 369.168,-455.5 369.168,-115.5 369.168,-98.2708 360.736,-81.0758 351.817,-67.7055"/>
<polygon fill="black" stroke="black" points="354.626,-65.6168 345.968,-59.5097 348.928,-69.6828 354.626,-65.6168"/>
</g>
<!-- Node0x2110c60 -->
<g id="node18" class="node"><title>Node0x2110c60</title>
<polygon fill="none" stroke="black" points="527.168,-480.5 527.168,-516.5 685.168,-516.5 685.168,-480.5 527.168,-480.5"/>
<text text-anchor="start" x="535.168" y="-494.8" font-family="Times,serif" font-size="14.00">if (levelfive() == 0):</text>
</g>
<!-- Node0x2110c00&#45;&gt;Node0x2110c60 -->
<g id="edge21" class="edge"><title>Node0x2110c00&#45;&gt;Node0x2110c60</title>
<path fill="none" stroke="black" d="M606.168,-607.447C606.168,-586.345 606.168,-551.205 606.168,-526.773"/>
<polygon fill="black" stroke="black" points="609.668,-526.71 606.168,-516.71 602.668,-526.71 609.668,-526.71"/>
</g>
<!-- Node0x2111870 -->
<g id="node19" class="node"><title>Node0x2111870</title>
<polygon fill="none" stroke="black" points="390.168,-318.5 390.168,-371.5 548.168,-371.5 548.168,-318.5 390.168,-318.5"/>
<text text-anchor="start" x="398.168" y="-356.3" font-family="Times,serif" font-size="14.00">0x80490d5:</text>
<text text-anchor="start" x="398.168" y="-341.3" font-family="Times,serif" font-size="14.00"> exit(0)</text>
<text text-anchor="start" x="398.168" y="-326.3" font-family="Times,serif" font-size="14.00"> # UNREACHABLE</text>
</g>
<!-- Node0x2110c60&#45;&gt;Node0x2111870 -->
<g id="edge22" class="edge"><title>Node0x2110c60&#45;&gt;Node0x2111870</title>
<path fill="none" stroke="black" d="M550.438,-480.393C540.543,-475.573 530.934,-469.525 523.168,-462 500.493,-440.029 486.351,-406.697 478.256,-381.393"/>
<polygon fill="black" stroke="black" points="481.595,-380.342 475.346,-371.785 474.895,-382.371 481.595,-380.342"/>
<text text-anchor="middle" x="579.168" y="-450.8" font-family="Times,serif" font-size="14.00">levelfive() == 0</text>
</g>
<!-- Node0x2110ff0 -->
<g id="node20" class="node"><title>Node0x2110ff0</title>
<polygon fill="none" stroke="black" points="532.168,-390.5 532.168,-428.5 838.168,-428.5 838.168,-390.5 532.168,-390.5"/>
<text text-anchor="start" x="540.168" y="-413.3" font-family="Times,serif" font-size="14.00">0x80490b2:</text>
<text text-anchor="start" x="540.168" y="-398.3" font-family="Times,serif" font-size="14.00"> puts(&quot;CrossCTF{xxxxxxxxxxxxxxxxx}&quot;)</text>
</g>
<!-- Node0x2110c60&#45;&gt;Node0x2110ff0 -->
<g id="edge23" class="edge"><title>Node0x2110c60&#45;&gt;Node0x2110ff0</title>
<path fill="none" stroke="black" d="M621.776,-480.312C633.234,-467.693 648.988,-450.343 661.925,-436.097"/>
<polygon fill="black" stroke="black" points="664.645,-438.307 668.776,-428.551 659.463,-433.602 664.645,-438.307"/>
<text text-anchor="middle" x="704.168" y="-450.8" font-family="Times,serif" font-size="14.00">levelfive() != 0</text>
</g>
<!-- Node0x2111870&#45;&gt;Node0x20df180 -->
<g id="edge24" class="edge"><title>Node0x2111870&#45;&gt;Node0x20df180</title>
<path fill="none" stroke="black" d="M440.109,-318.246C434.938,-312.626 429.991,-306.425 426.168,-300 411.538,-275.415 407.168,-267.108 407.168,-238.5 407.168,-238.5 407.168,-238.5 407.168,-115.5 407.168,-91.1167 386.569,-72.3361 366.819,-59.9333"/>
<polygon fill="black" stroke="black" points="368.57,-56.9029 358.176,-54.8487 365.021,-62.9362 368.57,-56.9029"/>
</g>
<!-- Node0x2111050 -->
<g id="node21" class="node"><title>Node0x2111050</title>
<polygon fill="none" stroke="black" points="435.168,-263.5 435.168,-299.5 947.168,-299.5 947.168,-263.5 435.168,-263.5"/>
<text text-anchor="start" x="443.168" y="-277.8" font-family="Times,serif" font-size="14.00">if (*(IntToPtrCastExpr&lt;ptr&gt;(20)) != *(IntToPtrCastExpr&lt;ptr&gt;(20))):</text>
</g>
<!-- Node0x2110ff0&#45;&gt;Node0x2111050 -->
<g id="edge25" class="edge"><title>Node0x2110ff0&#45;&gt;Node0x2111050</title>
<path fill="none" stroke="black" d="M686.027,-390.447C687.032,-369.345 688.706,-334.205 689.869,-309.773"/>
<polygon fill="black" stroke="black" points="693.368,-309.866 690.348,-299.71 686.376,-309.532 693.368,-309.866"/>
</g>
<!-- Node0x2111b80 -->
<g id="node22" class="node"><title>Node0x2111b80</title>
<polygon fill="none" stroke="black" points="434.668,-173.5 434.668,-211.5 583.668,-211.5 583.668,-173.5 434.668,-173.5"/>
<text text-anchor="start" x="442.668" y="-196.3" font-family="Times,serif" font-size="14.00">0x80490df:</text>
<text text-anchor="start" x="442.668" y="-181.3" font-family="Times,serif" font-size="14.00"> __stack_chk_fail()</text>
</g>
<!-- Node0x2111050&#45;&gt;Node0x2111b80 -->
<g id="edge26" class="edge"><title>Node0x2111050&#45;&gt;Node0x2111b80</title>
<path fill="none" stroke="black" d="M511.405,-263.416C494.763,-258.697 481.686,-252.677 475.168,-245 468.478,-237.121 471.658,-227.868 478.22,-219.394"/>
<polygon fill="black" stroke="black" points="480.894,-221.655 485.01,-211.893 475.704,-216.957 480.894,-221.655"/>
<text text-anchor="middle" x="708.668" y="-233.8" font-family="Times,serif" font-size="14.00">*(IntToPtrCastExpr&lt;ptr&gt;(20)) != *(IntToPtrCastExpr&lt;ptr&gt;(20))</text>
</g>
<!-- Node0x2111670 -->
<g id="node23" class="node"><title>Node0x2111670</title>
<polygon fill="none" stroke="black" points="458.668,-97.5 458.668,-135.5 559.668,-135.5 559.668,-97.5 458.668,-97.5"/>
<text text-anchor="start" x="466.668" y="-120.3" font-family="Times,serif" font-size="14.00">0x80490e4:</text>
<text text-anchor="start" x="466.668" y="-105.3" font-family="Times,serif" font-size="14.00"> return 0</text>
</g>
<!-- Node0x2111050&#45;&gt;Node0x2111670 -->
<g id="edge27" class="edge"><title>Node0x2111050&#45;&gt;Node0x2111670</title>
<path fill="none" stroke="black" d="M907.368,-263.455C923.174,-258.684 935.53,-252.642 942.168,-245 946.539,-239.967 946.246,-235.274 942.168,-230 896.769,-171.299 677.895,-137.55 569.814,-124.209"/>
<polygon fill="black" stroke="black" points="570.059,-120.713 559.71,-122.982 569.215,-127.662 570.059,-120.713"/>
<text text-anchor="middle" x="1154.67" y="-188.8" font-family="Times,serif" font-size="14.00">*(IntToPtrCastExpr&lt;ptr&gt;(20)) == *(IntToPtrCastExpr&lt;ptr&gt;(20))</text>
</g>
<!-- Node0x2111b80&#45;&gt;Node0x2111670 -->
<g id="edge28" class="edge"><title>Node0x2111b80&#45;&gt;Node0x2111670</title>
<path fill="none" stroke="black" d="M509.168,-173.208C509.168,-164.964 509.168,-155.038 509.168,-145.862"/>
<polygon fill="black" stroke="black" points="512.668,-145.582 509.168,-135.582 505.668,-145.582 512.668,-145.582"/>
</g>
<!-- Node0x2111670&#45;&gt;Node0x20df180 -->
<g id="edge29" class="edge"><title>Node0x2111670&#45;&gt;Node0x20df180</title>
<path fill="none" stroke="black" d="M467.189,-97.3372C452.65,-91.1197 436.225,-84.1766 421.168,-78 403.794,-70.8735 384.431,-63.201 368.129,-56.8186"/>
<polygon fill="black" stroke="black" points="369.008,-53.4044 358.42,-53.0278 366.462,-59.9251 369.008,-53.4044"/>
</g>
</g>
</svg>
