<?xml version="1.0" encoding="UTF-8" standalone="no"?>
<!DOCTYPE svg PUBLIC "-//W3C//DTD SVG 1.1//EN"
 "http://www.w3.org/Graphics/SVG/1.1/DTD/svg11.dtd">
<!-- Generated by graphviz version 2.38.0 (20140413.2041)
 -->
<!-- Title: Control&#45;flow graph for function &#39;magic(a1)&#39;. Pages: 1 -->
<svg width="1210pt" height="579pt"
 viewBox="0.00 0.00 1209.50 579.00" xmlns="http://www.w3.org/2000/svg" xmlns:xlink="http://www.w3.org/1999/xlink">
<g id="graph0" class="graph" transform="scale(1 1) rotate(0) translate(4 575)">
<title>Control&#45;flow graph for function &#39;magic(a1)&#39;.</title>
<polygon fill="white" stroke="none" points="-4,4 -4,-575 1205.5,-575 1205.5,4 -4,4"/>
<text text-anchor="middle" x="600.75" y="-7.8" font-family="Times,serif" font-size="14.00">Control&#45;flow graph for function &#39;magic(a1)&#39;.</text>
<!-- Node0x21be2c0 -->
<g id="node1" class="node"><title>Node0x21be2c0</title>
<polygon fill="none" stroke="black" points="309,-532.5 309,-570.5 368,-570.5 368,-532.5 309,-532.5"/>
<text text-anchor="start" x="317" y="-555.3" font-family="Times,serif" font-size="14.00">entry:</text>
<text text-anchor="start" x="317" y="-540.3" font-family="Times,serif" font-size="14.00"> a1</text>
</g>
<!-- Node0x219cf20 -->
<g id="node2" class="node"><title>Node0x219cf20</title>
<polygon fill="none" stroke="black" points="253,-456.5 253,-494.5 424,-494.5 424,-456.5 253,-456.5"/>
<text text-anchor="start" x="261" y="-479.3" font-family="Times,serif" font-size="14.00">v1 = (16777216 * a1)</text>
<text text-anchor="start" x="261" y="-464.3" font-family="Times,serif" font-size="14.00"> result = 0</text>
</g>
<!-- Node0x21be2c0&#45;&gt;Node0x219cf20 -->
<g id="edge1" class="edge"><title>Node0x21be2c0&#45;&gt;Node0x219cf20</title>
<path fill="none" stroke="black" d="M338.5,-532.208C338.5,-523.964 338.5,-514.038 338.5,-504.862"/>
<polygon fill="black" stroke="black" points="342,-504.582 338.5,-494.582 335,-504.582 342,-504.582"/>
</g>
<!-- Node0x219ed20 -->
<g id="node3" class="node"><title>Node0x219ed20</title>
<polygon fill="none" stroke="black" points="201,-382.5 201,-418.5 476,-418.5 476,-382.5 201,-382.5"/>
<text text-anchor="start" x="209" y="-396.8" font-family="Times,serif" font-size="14.00">if ((v1 or 16777215) &gt;= 33554431):</text>
</g>
<!-- Node0x219cf20&#45;&gt;Node0x219ed20 -->
<g id="edge2" class="edge"><title>Node0x219cf20&#45;&gt;Node0x219ed20</title>
<path fill="none" stroke="black" d="M338.5,-456.455C338.5,-448.201 338.5,-438.238 338.5,-429.074"/>
<polygon fill="black" stroke="black" points="342,-428.835 338.5,-418.835 335,-428.835 342,-428.835"/>
</g>
<!-- Node0x21b48a0 -->
<g id="node4" class="node"><title>Node0x21b48a0</title>
<polygon fill="none" stroke="black" points="74.5,-292.5 74.5,-330.5 242.5,-330.5 242.5,-292.5 74.5,-292.5"/>
<text text-anchor="start" x="82.5" y="-315.3" font-family="Times,serif" font-size="14.00">v2 = (v1 / 16777216)</text>
<text text-anchor="start" x="82.5" y="-300.3" font-family="Times,serif" font-size="14.00"> v3 = (v2 % 2)</text>
</g>
<!-- Node0x219ed20&#45;&gt;Node0x21b48a0 -->
<g id="edge3" class="edge"><title>Node0x219ed20&#45;&gt;Node0x21b48a0</title>
<path fill="none" stroke="black" d="M285.004,-382.452C270.315,-377.147 254.566,-370.867 240.5,-364 224.237,-356.06 207.15,-345.691 192.809,-336.339"/>
<polygon fill="black" stroke="black" points="194.536,-333.285 184.267,-330.679 190.67,-339.12 194.536,-333.285"/>
<text text-anchor="middle" x="355" y="-352.8" font-family="Times,serif" font-size="14.00">(v1 or 16777215) &gt;= 33554431</text>
</g>
<!-- Node0x20eeb40 -->
<g id="node5" class="node"><title>Node0x20eeb40</title>
<polygon fill="none" stroke="black" points="261,-292.5 261,-330.5 778,-330.5 778,-292.5 261,-292.5"/>
<text text-anchor="start" x="269" y="-315.3" font-family="Times,serif" font-size="14.00">0x8048953:</text>
<text text-anchor="start" x="269" y="-300.3" font-family="Times,serif" font-size="14.00"> if (*(IntToPtrCastExpr&lt;ptr&gt;(20)) != *(IntToPtrCastExpr&lt;ptr&gt;(20))):</text>
</g>
<!-- Node0x219ed20&#45;&gt;Node0x20eeb40 -->
<g id="edge4" class="edge"><title>Node0x219ed20&#45;&gt;Node0x20eeb40</title>
<path fill="none" stroke="black" d="M427.105,-382.465C441.823,-377.701 456.507,-371.655 469.5,-364 480.74,-357.378 491.149,-347.56 499.526,-338.266"/>
<polygon fill="black" stroke="black" points="502.195,-340.531 506.059,-330.666 496.887,-335.968 502.195,-340.531"/>
<text text-anchor="middle" x="597" y="-352.8" font-family="Times,serif" font-size="14.00">(v1 or 16777215) &lt; 33554431</text>
</g>
<!-- Node0x21b4920 -->
<g id="node6" class="node"><title>Node0x21b4920</title>
<polygon fill="none" stroke="black" points="91.5,-203.5 91.5,-239.5 225.5,-239.5 225.5,-203.5 91.5,-203.5"/>
<text text-anchor="start" x="99.5" y="-217.8" font-family="Times,serif" font-size="14.00">while (v2 &gt;= 2):</text>
</g>
<!-- Node0x21b48a0&#45;&gt;Node0x21b4920 -->
<g id="edge5" class="edge"><title>Node0x21b48a0&#45;&gt;Node0x21b4920</title>
<path fill="none" stroke="black" d="M158.5,-292.266C158.5,-280.031 158.5,-263.692 158.5,-249.902"/>
<polygon fill="black" stroke="black" points="162,-249.516 158.5,-239.516 155,-249.516 162,-249.516"/>
</g>
<!-- Node0x21a0ba0 -->
<g id="node7" class="node"><title>Node0x21a0ba0</title>
<polygon fill="none" stroke="black" points="255,-202.5 255,-240.5 404,-240.5 404,-202.5 255,-202.5"/>
<text text-anchor="start" x="263" y="-225.3" font-family="Times,serif" font-size="14.00">0x8048962:</text>
<text text-anchor="start" x="263" y="-210.3" font-family="Times,serif" font-size="14.00"> __stack_chk_fail()</text>
</g>
<!-- Node0x20eeb40&#45;&gt;Node0x21a0ba0 -->
<g id="edge6" class="edge"><title>Node0x20eeb40&#45;&gt;Node0x21a0ba0</title>
<path fill="none" stroke="black" d="M311.144,-292.43C295.371,-287.635 283.041,-281.597 276.5,-274 268.349,-264.533 274.065,-254.818 284.279,-246.412"/>
<polygon fill="black" stroke="black" points="286.333,-249.247 292.378,-240.546 282.226,-243.578 286.333,-249.247"/>
<text text-anchor="middle" x="510" y="-262.8" font-family="Times,serif" font-size="14.00">*(IntToPtrCastExpr&lt;ptr&gt;(20)) != *(IntToPtrCastExpr&lt;ptr&gt;(20))</text>
</g>
<!-- Node0x21b47b0 -->
<g id="node8" class="node"><title>Node0x21b47b0</title>
<polygon fill="none" stroke="black" points="304,-105 304,-143 417,-143 417,-105 304,-105"/>
<text text-anchor="start" x="312" y="-127.8" font-family="Times,serif" font-size="14.00">0x8048967:</text>
<text text-anchor="start" x="312" y="-112.8" font-family="Times,serif" font-size="14.00"> return result</text>
</g>
<!-- Node0x20eeb40&#45;&gt;Node0x21b47b0 -->
<g id="edge7" class="edge"><title>Node0x20eeb40&#45;&gt;Node0x21b47b0</title>
<path fill="none" stroke="black" d="M707.851,-292.494C724.186,-287.708 736.992,-281.655 743.5,-274 747.818,-268.921 747.358,-264.437 743.5,-259 671.471,-157.489 516.42,-132.269 427.263,-126.386"/>
<polygon fill="black" stroke="black" points="427.447,-122.891 417.256,-125.788 427.03,-129.878 427.447,-122.891"/>
<text text-anchor="middle" x="965" y="-217.8" font-family="Times,serif" font-size="14.00">*(IntToPtrCastExpr&lt;ptr&gt;(20)) == *(IntToPtrCastExpr&lt;ptr&gt;(20))</text>
</g>
<!-- Node0x21cb290 -->
<g id="node9" class="node"><title>Node0x21cb290</title>
<polygon fill="none" stroke="black" points="0,-97.5 0,-150.5 167,-150.5 167,-97.5 0,-97.5"/>
<text text-anchor="start" x="8" y="-135.3" font-family="Times,serif" font-size="14.00">0x8048940:</text>
<text text-anchor="start" x="8" y="-120.3" font-family="Times,serif" font-size="14.00"> v2 = (v2 / 2)</text>
<text text-anchor="start" x="8" y="-105.3" font-family="Times,serif" font-size="14.00"> v3 = ((v2 % 2) + v3)</text>
</g>
<!-- Node0x21b4920&#45;&gt;Node0x21cb290 -->
<g id="edge8" class="edge"><title>Node0x21b4920&#45;&gt;Node0x21cb290</title>
<path fill="none" stroke="black" d="M105.453,-203.449C97.1536,-198.471 89.6368,-192.107 84.5,-184 80.1436,-177.124 78.395,-168.833 78.0551,-160.668"/>
<polygon fill="black" stroke="black" points="81.5578,-160.586 78.2877,-150.508 74.5597,-160.425 81.5578,-160.586"/>
<text text-anchor="middle" x="114.5" y="-172.8" font-family="Times,serif" font-size="14.00">v2 &gt;= 2</text>
</g>
<!-- Node0x21a0ac0 -->
<g id="node10" class="node"><title>Node0x21a0ac0</title>
<polygon fill="none" stroke="black" points="185,-105 185,-143 286,-143 286,-105 185,-105"/>
<text text-anchor="start" x="193" y="-127.8" font-family="Times,serif" font-size="14.00">0x804894d:</text>
<text text-anchor="start" x="193" y="-112.8" font-family="Times,serif" font-size="14.00"> result = v3</text>
</g>
<!-- Node0x21b4920&#45;&gt;Node0x21a0ac0 -->
<g id="edge9" class="edge"><title>Node0x21b4920&#45;&gt;Node0x21a0ac0</title>
<path fill="none" stroke="black" d="M172.266,-203.427C183.906,-188.989 200.778,-168.064 214.167,-151.459"/>
<polygon fill="black" stroke="black" points="217.252,-153.208 220.804,-143.226 211.803,-148.814 217.252,-153.208"/>
<text text-anchor="middle" x="223.5" y="-172.8" font-family="Times,serif" font-size="14.00">v2 &lt; 2</text>
</g>
<!-- Node0x21a0ba0&#45;&gt;Node0x21b47b0 -->
<g id="edge10" class="edge"><title>Node0x21a0ba0&#45;&gt;Node0x21b47b0</title>
<path fill="none" stroke="black" d="M335.477,-202.087C340.009,-188.126 346.314,-168.702 351.461,-152.845"/>
<polygon fill="black" stroke="black" points="354.888,-153.625 354.646,-143.033 348.23,-151.464 354.888,-153.625"/>
</g>
<!-- Node0x2199ab0 -->
<g id="node11" class="node"><title>Node0x2199ab0</title>
<polygon fill="none" stroke="black" points="283.5,-23.5 283.5,-59.5 337.5,-59.5 337.5,-23.5 283.5,-23.5"/>
<text text-anchor="start" x="291.5" y="-37.8" font-family="Times,serif" font-size="14.00">exit:</text>
</g>
<!-- Node0x21b47b0&#45;&gt;Node0x2199ab0 -->
<g id="edge11" class="edge"><title>Node0x21b47b0&#45;&gt;Node0x2199ab0</title>
<path fill="none" stroke="black" d="M349.154,-104.733C342.45,-93.9393 333.856,-80.1026 326.474,-68.2183"/>
<polygon fill="black" stroke="black" points="329.367,-66.2416 321.117,-59.5935 323.42,-69.935 329.367,-66.2416"/>
</g>
<!-- Node0x21cb290&#45;&gt;Node0x21b4920 -->
<g id="edge12" class="edge"><title>Node0x21cb290&#45;&gt;Node0x21b4920</title>
<path fill="none" stroke="black" d="M126.94,-150.531C133.551,-155.944 139.742,-162.13 144.5,-169 149.396,-176.07 152.582,-184.783 154.654,-193.018"/>
<polygon fill="black" stroke="black" points="151.273,-193.952 156.729,-203.034 158.128,-192.532 151.273,-193.952"/>
</g>
<!-- Node0x21a0ac0&#45;&gt;Node0x2199ab0 -->
<g id="edge13" class="edge"><title>Node0x21a0ac0&#45;&gt;Node0x2199ab0</title>
<path fill="none" stroke="black" d="M252.519,-104.733C262.871,-93.6218 276.227,-79.2861 287.511,-67.1748"/>
<polygon fill="black" stroke="black" points="290.318,-69.296 294.574,-59.5935 285.197,-64.5243 290.318,-69.296"/>
</g>
</g>
</svg>
