<?xml version="1.0" encoding="UTF-8" standalone="no"?>
<!DOCTYPE svg PUBLIC "-//W3C//DTD SVG 1.1//EN"
 "http://www.w3.org/Graphics/SVG/1.1/DTD/svg11.dtd">
<!-- Generated by graphviz version 2.38.0 (20140413.2041)
 -->
<!-- Title: Control&#45;flow graph for function &#39;levelone()&#39;. Pages: 1 -->
<svg width="1163pt" height="563pt"
 viewBox="0.00 0.00 1162.50 563.00" xmlns="http://www.w3.org/2000/svg" xmlns:xlink="http://www.w3.org/1999/xlink">
<g id="graph0" class="graph" transform="scale(1 1) rotate(0) translate(4 559)">
<title>Control&#45;flow graph for function &#39;levelone()&#39;.</title>
<polygon fill="white" stroke="none" points="-4,4 -4,-559 1158.5,-559 1158.5,4 -4,4"/>
<text text-anchor="middle" x="577.25" y="-7.8" font-family="Times,serif" font-size="14.00">Control&#45;flow graph for function &#39;levelone()&#39;.</text>
<!-- Node0x218f810 -->
<g id="node1" class="node"><title>Node0x218f810</title>
<polygon fill="none" stroke="black" points="417,-518.5 417,-554.5 476,-554.5 476,-518.5 417,-518.5"/>
<text text-anchor="start" x="425" y="-532.8" font-family="Times,serif" font-size="14.00">entry:</text>
</g>
<!-- Node0x20f4420 -->
<g id="node2" class="node"><title>Node0x20f4420</title>
<polygon fill="none" stroke="black" points="0,-337.5 0,-480.5 893,-480.5 893,-337.5 0,-337.5"/>
<text text-anchor="start" x="8" y="-465.3" font-family="Times,serif" font-size="14.00">str2 = 1081548873</text>
<text text-anchor="start" x="8" y="-450.3" font-family="Times,serif" font-size="14.00"> puts(&quot;====================================================================&quot;)</text>
<text text-anchor="start" x="8" y="-435.3" font-family="Times,serif" font-size="14.00"> puts(&quot; LEVEL 01 &quot;)</text>
<text text-anchor="start" x="8" y="-420.3" font-family="Times,serif" font-size="14.00"> puts(&quot;====================================================================&quot;)</text>
<text text-anchor="start" x="8" y="-405.3" font-family="Times,serif" font-size="14.00"> printf(&quot;Enter code: &quot;)</text>
<text text-anchor="start" x="8" y="-390.3" font-family="Times,serif" font-size="14.00"> str</text>
<text text-anchor="start" x="8" y="-375.3" font-family="Times,serif" font-size="14.00"> fgets(BitCastExpr&lt;ptr&gt;(&amp;(str)), 32, g2)</text>
<text text-anchor="start" x="8" y="-360.3" font-family="Times,serif" font-size="14.00"> strcspn(BitCastExpr&lt;ptr&gt;(&amp;(str)), &quot;\n&quot;)</text>
<text text-anchor="start" x="8" y="-345.3" font-family="Times,serif" font-size="14.00"> strcmp_rc = strcmp(BitCastExpr&lt;ptr&gt;(&amp;(str2)), BitCastExpr&lt;ptr&gt;(&amp;(str)))</text>
</g>
<!-- Node0x218f810&#45;&gt;Node0x20f4420 -->
<g id="edge1" class="edge"><title>Node0x218f810&#45;&gt;Node0x20f4420</title>
<path fill="none" stroke="black" d="M446.5,-518.313C446.5,-510.682 446.5,-501.101 446.5,-490.811"/>
<polygon fill="black" stroke="black" points="450,-490.769 446.5,-480.769 443,-490.769 450,-490.769"/>
</g>
<!-- Node0x2180bd0 -->
<g id="node3" class="node"><title>Node0x2180bd0</title>
<polygon fill="none" stroke="black" points="190.5,-263.5 190.5,-299.5 702.5,-299.5 702.5,-263.5 190.5,-263.5"/>
<text text-anchor="start" x="198.5" y="-277.8" font-family="Times,serif" font-size="14.00">if (*(IntToPtrCastExpr&lt;ptr&gt;(20)) != *(IntToPtrCastExpr&lt;ptr&gt;(20))):</text>
</g>
<!-- Node0x20f4420&#45;&gt;Node0x2180bd0 -->
<g id="edge2" class="edge"><title>Node0x20f4420&#45;&gt;Node0x2180bd0</title>
<path fill="none" stroke="black" d="M446.5,-337.181C446.5,-327.439 446.5,-317.961 446.5,-309.707"/>
<polygon fill="black" stroke="black" points="450,-309.642 446.5,-299.642 443,-309.642 450,-309.642"/>
</g>
<!-- Node0x21013e0 -->
<g id="node4" class="node"><title>Node0x21013e0</title>
<polygon fill="none" stroke="black" points="317,-173.5 317,-211.5 466,-211.5 466,-173.5 317,-173.5"/>
<text text-anchor="start" x="325" y="-196.3" font-family="Times,serif" font-size="14.00">0x8048819:</text>
<text text-anchor="start" x="325" y="-181.3" font-family="Times,serif" font-size="14.00"> __stack_chk_fail()</text>
</g>
<!-- Node0x2180bd0&#45;&gt;Node0x21013e0 -->
<g id="edge3" class="edge"><title>Node0x2180bd0&#45;&gt;Node0x21013e0</title>
<path fill="none" stroke="black" d="M241.728,-263.433C225.67,-258.684 213.104,-252.653 206.5,-245 202.144,-239.953 202.267,-235.15 206.5,-230 219.587,-214.079 264.55,-204.99 306.869,-199.863"/>
<polygon fill="black" stroke="black" points="307.442,-203.321 316.979,-198.705 306.645,-196.366 307.442,-203.321"/>
<text text-anchor="middle" x="440" y="-233.8" font-family="Times,serif" font-size="14.00">*(IntToPtrCastExpr&lt;ptr&gt;(20)) != *(IntToPtrCastExpr&lt;ptr&gt;(20))</text>
</g>
<!-- Node0x215ecf0 -->
<g id="node5" class="node"><title>Node0x215ecf0</title>
<polygon fill="none" stroke="black" points="509,-97.5 509,-135.5 706,-135.5 706,-97.5 509,-97.5"/>
<text text-anchor="start" x="517" y="-120.3" font-family="Times,serif" font-size="14.00">0x804881e:</text>
<text text-anchor="start" x="517" y="-105.3" font-family="Times,serif" font-size="14.00"> return (strcmp_rc == 0)</text>
</g>
<!-- Node0x2180bd0&#45;&gt;Node0x215ecf0 -->
<g id="edge4" class="edge"><title>Node0x2180bd0&#45;&gt;Node0x215ecf0</title>
<path fill="none" stroke="black" d="M637.825,-263.392C654.153,-258.667 666.951,-252.652 673.5,-245 700.278,-213.709 664.993,-169.694 636.606,-142.417"/>
<polygon fill="black" stroke="black" points="638.912,-139.783 629.21,-135.527 634.14,-144.904 638.912,-139.783"/>
<text text-anchor="middle" x="918" y="-188.8" font-family="Times,serif" font-size="14.00">*(IntToPtrCastExpr&lt;ptr&gt;(20)) == *(IntToPtrCastExpr&lt;ptr&gt;(20))</text>
</g>
<!-- Node0x21013e0&#45;&gt;Node0x215ecf0 -->
<g id="edge5" class="edge"><title>Node0x21013e0&#45;&gt;Node0x215ecf0</title>
<path fill="none" stroke="black" d="M444.063,-173.492C474.506,-163.063 513.011,-149.871 544.999,-138.912"/>
<polygon fill="black" stroke="black" points="546.375,-142.141 554.701,-135.589 544.106,-135.519 546.375,-142.141"/>
</g>
<!-- Node0x213c470 -->
<g id="node6" class="node"><title>Node0x213c470</title>
<polygon fill="none" stroke="black" points="580.5,-23.5 580.5,-59.5 634.5,-59.5 634.5,-23.5 580.5,-23.5"/>
<text text-anchor="start" x="588.5" y="-37.8" font-family="Times,serif" font-size="14.00">exit:</text>
</g>
<!-- Node0x215ecf0&#45;&gt;Node0x213c470 -->
<g id="edge6" class="edge"><title>Node0x215ecf0&#45;&gt;Node0x213c470</title>
<path fill="none" stroke="black" d="M607.5,-97.4551C607.5,-89.2008 607.5,-79.2377 607.5,-70.0742"/>
<polygon fill="black" stroke="black" points="611,-69.8347 607.5,-59.8347 604,-69.8347 611,-69.8347"/>
</g>
</g>
</svg>
