<?xml version="1.0" encoding="UTF-8" standalone="no"?>
<!DOCTYPE svg PUBLIC "-//W3C//DTD SVG 1.1//EN"
 "http://www.w3.org/Graphics/SVG/1.1/DTD/svg11.dtd">
<!-- Generated by graphviz version 2.38.0 (20140413.2041)
 -->
<!-- Title: Call graph of the module. Pages: 1 -->
<svg width="1220pt" height="287pt"
 viewBox="0.00 0.00 1219.50 287.00" xmlns="http://www.w3.org/2000/svg" xmlns:xlink="http://www.w3.org/1999/xlink">
<g id="graph0" class="graph" transform="scale(1 1) rotate(0) translate(4 283)">
<title>Call graph of the module.</title>
<polygon fill="white" stroke="none" points="-4,4 -4,-283 1215.5,-283 1215.5,4 -4,4"/>
<text text-anchor="middle" x="605.75" y="-7.8" font-family="Times,serif" font-size="14.00">Call graph of the module.</text>
<!-- Node_levelone -->
<g id="node1" class="node"><title>Node_levelone</title>
<polygon fill="none" stroke="black" points="203,-169.5 203,-205.5 279,-205.5 279,-169.5 203,-169.5"/>
<text text-anchor="middle" x="241" y="-183.8" font-family="Times,serif" font-size="14.00">levelone</text>
</g>
<!-- Node_strcmp -->
<g id="node11" class="node"><title>Node_strcmp</title>
<polygon fill="none" stroke="#7f7f7f" points="0,-96.5 0,-132.5 68,-132.5 68,-96.5 0,-96.5"/>
<text text-anchor="middle" x="34" y="-110.8" font-family="Times,serif" font-size="14.00" fill="#7f7f7f">strcmp</text>
</g>
<!-- Node_levelone&#45;&gt;Node_strcmp -->
<g id="edge1" class="edge"><title>Node_levelone&#45;&gt;Node_strcmp</title>
<path fill="none" stroke="black" d="M203,-174.011C170.731,-163.334 123.229,-147.449 82,-133 80.5874,-132.505 79.1525,-131.999 77.7044,-131.486"/>
<polygon fill="black" stroke="black" points="78.6453,-128.106 68.0507,-128.033 76.288,-134.697 78.6453,-128.106"/>
</g>
<!-- Node_printf -->
<g id="node12" class="node"><title>Node_printf</title>
<polygon fill="none" stroke="#7f7f7f" points="440.5,-96.5 440.5,-132.5 497.5,-132.5 497.5,-96.5 440.5,-96.5"/>
<text text-anchor="middle" x="469" y="-110.8" font-family="Times,serif" font-size="14.00" fill="#7f7f7f">printf</text>
</g>
<!-- Node_levelone&#45;&gt;Node_printf -->
<g id="edge2" class="edge"><title>Node_levelone&#45;&gt;Node_printf</title>
<path fill="none" stroke="black" d="M279.162,-174.616C321.295,-161.496 388.72,-140.499 430.849,-127.38"/>
<polygon fill="black" stroke="black" points="431.96,-130.7 440.467,-124.385 429.879,-124.017 431.96,-130.7"/>
</g>
<!-- Node_strcspn -->
<g id="node13" class="node"><title>Node_strcspn</title>
<polygon fill="none" stroke="#7f7f7f" points="124.5,-96.5 124.5,-132.5 195.5,-132.5 195.5,-96.5 124.5,-96.5"/>
<text text-anchor="middle" x="160" y="-110.8" font-family="Times,serif" font-size="14.00" fill="#7f7f7f">strcspn</text>
</g>
<!-- Node_levelone&#45;&gt;Node_strcspn -->
<g id="edge3" class="edge"><title>Node_levelone&#45;&gt;Node_strcspn</title>
<path fill="none" stroke="black" d="M221.392,-169.313C211.144,-160.33 198.439,-149.193 187.25,-139.386"/>
<polygon fill="black" stroke="black" points="189.254,-136.488 179.427,-132.529 184.64,-141.753 189.254,-136.488"/>
</g>
<!-- Node_fgets -->
<g id="node14" class="node"><title>Node_fgets</title>
<polygon fill="none" stroke="#7f7f7f" points="214,-96.5 214,-132.5 268,-132.5 268,-96.5 214,-96.5"/>
<text text-anchor="middle" x="241" y="-110.8" font-family="Times,serif" font-size="14.00" fill="#7f7f7f">fgets</text>
</g>
<!-- Node_levelone&#45;&gt;Node_fgets -->
<g id="edge4" class="edge"><title>Node_levelone&#45;&gt;Node_fgets</title>
<path fill="none" stroke="black" d="M241,-169.313C241,-161.289 241,-151.547 241,-142.569"/>
<polygon fill="black" stroke="black" points="244.5,-142.529 241,-132.529 237.5,-142.529 244.5,-142.529"/>
</g>
<!-- Node___stack_chk_fail -->
<g id="node15" class="node"><title>Node___stack_chk_fail</title>
<polygon fill="none" stroke="#7f7f7f" points="644,-23.5 644,-59.5 778,-59.5 778,-23.5 644,-23.5"/>
<text text-anchor="middle" x="711" y="-37.8" font-family="Times,serif" font-size="14.00" fill="#7f7f7f">__stack_chk_fail</text>
</g>
<!-- Node_levelone&#45;&gt;Node___stack_chk_fail -->
<g id="edge5" class="edge"><title>Node_levelone&#45;&gt;Node___stack_chk_fail</title>
<path fill="none" stroke="black" d="M202.71,-181.568C173.227,-175.539 134.346,-162.232 115,-133 105.924,-119.287 103.904,-108.137 115,-96 149.327,-58.454 480.041,-47.0429 633.494,-43.7539"/>
<polygon fill="black" stroke="black" points="633.86,-47.2471 643.785,-43.5398 633.715,-40.2487 633.86,-47.2471"/>
</g>
<!-- Node_puts -->
<g id="node16" class="node"><title>Node_puts</title>
<polygon fill="none" stroke="#7f7f7f" points="516,-96.5 516,-132.5 570,-132.5 570,-96.5 516,-96.5"/>
<text text-anchor="middle" x="543" y="-110.8" font-family="Times,serif" font-size="14.00" fill="#7f7f7f">puts</text>
</g>
<!-- Node_levelone&#45;&gt;Node_puts -->
<g id="edge6" class="edge"><title>Node_levelone&#45;&gt;Node_puts</title>
<path fill="none" stroke="black" d="M279.05,-181.777C331.202,-174.64 427.378,-159.098 506,-133 506.101,-132.966 506.202,-132.933 506.304,-132.899"/>
<polygon fill="black" stroke="black" points="507.736,-136.098 515.826,-129.257 505.235,-129.56 507.736,-136.098"/>
</g>
<!-- Node_leveltwo -->
<g id="node2" class="node"><title>Node_leveltwo</title>
<polygon fill="none" stroke="black" points="517.5,-169.5 517.5,-205.5 594.5,-205.5 594.5,-169.5 517.5,-169.5"/>
<text text-anchor="middle" x="556" y="-183.8" font-family="Times,serif" font-size="14.00">leveltwo</text>
</g>
<!-- Node_leveltwo&#45;&gt;Node_printf -->
<g id="edge7" class="edge"><title>Node_leveltwo&#45;&gt;Node_printf</title>
<path fill="none" stroke="black" d="M534.94,-169.313C523.826,-160.243 510.021,-148.977 497.919,-139.1"/>
<polygon fill="black" stroke="black" points="499.827,-136.14 489.866,-132.529 495.401,-141.563 499.827,-136.14"/>
</g>
<!-- Node_leveltwo&#45;&gt;Node___stack_chk_fail -->
<g id="edge8" class="edge"><title>Node_leveltwo&#45;&gt;Node___stack_chk_fail</title>
<path fill="none" stroke="black" d="M517.328,-172.404C482.546,-159.338 436.135,-140.783 431,-133 421.944,-119.274 420.52,-108.672 431,-96 456.304,-65.4033 559.884,-52.1438 633.677,-46.5083"/>
<polygon fill="black" stroke="black" points="634.162,-49.9823 643.881,-45.7627 633.652,-43.0009 634.162,-49.9823"/>
</g>
<!-- Node_leveltwo&#45;&gt;Node_puts -->
<g id="edge9" class="edge"><title>Node_leveltwo&#45;&gt;Node_puts</title>
<path fill="none" stroke="black" d="M552.853,-169.313C551.384,-161.289 549.6,-151.547 547.956,-142.569"/>
<polygon fill="black" stroke="black" points="551.362,-141.735 546.118,-132.529 544.476,-142.996 551.362,-141.735"/>
</g>
<!-- Node_scanf -->
<g id="node19" class="node"><title>Node_scanf</title>
<polygon fill="none" stroke="#7f7f7f" points="588.5,-96.5 588.5,-132.5 643.5,-132.5 643.5,-96.5 588.5,-96.5"/>
<text text-anchor="middle" x="616" y="-110.8" font-family="Times,serif" font-size="14.00" fill="#7f7f7f">scanf</text>
</g>
<!-- Node_leveltwo&#45;&gt;Node_scanf -->
<g id="edge10" class="edge"><title>Node_leveltwo&#45;&gt;Node_scanf</title>
<path fill="none" stroke="black" d="M570.524,-169.313C577.894,-160.592 586.98,-149.84 595.088,-140.246"/>
<polygon fill="black" stroke="black" points="597.828,-142.426 601.609,-132.529 592.482,-137.908 597.828,-142.426"/>
</g>
<!-- Node_magic -->
<g id="node3" class="node"><title>Node_magic</title>
<polygon fill="none" stroke="black" points="286,-96.5 286,-132.5 346,-132.5 346,-96.5 286,-96.5"/>
<text text-anchor="middle" x="316" y="-110.8" font-family="Times,serif" font-size="14.00">magic</text>
</g>
<!-- Node_magic&#45;&gt;Node___stack_chk_fail -->
<g id="edge11" class="edge"><title>Node_magic&#45;&gt;Node___stack_chk_fail</title>
<path fill="none" stroke="black" d="M346.469,-100.353C350.952,-98.7207 355.557,-97.2053 360,-96 452.283,-70.9657 561.605,-56.6267 633.433,-49.2133"/>
<polygon fill="black" stroke="black" points="634.156,-52.6582 643.752,-48.1693 633.451,-45.6937 634.156,-52.6582"/>
</g>
<!-- Node_levelthree -->
<g id="node4" class="node"><title>Node_levelthree</title>
<polygon fill="none" stroke="black" points="410.5,-169.5 410.5,-205.5 499.5,-205.5 499.5,-169.5 410.5,-169.5"/>
<text text-anchor="middle" x="455" y="-183.8" font-family="Times,serif" font-size="14.00">levelthree</text>
</g>
<!-- Node_levelthree&#45;&gt;Node_magic -->
<g id="edge12" class="edge"><title>Node_levelthree&#45;&gt;Node_magic</title>
<path fill="none" stroke="black" d="M421.706,-169.494C401.697,-159.273 376.132,-146.215 355.156,-135.501"/>
<polygon fill="black" stroke="black" points="356.676,-132.347 346.178,-130.915 353.492,-138.581 356.676,-132.347"/>
</g>
<!-- Node_levelthree&#45;&gt;Node_printf -->
<g id="edge13" class="edge"><title>Node_levelthree&#45;&gt;Node_printf</title>
<path fill="none" stroke="black" d="M458.389,-169.313C459.971,-161.289 461.892,-151.547 463.662,-142.569"/>
<polygon fill="black" stroke="black" points="467.141,-143.017 465.642,-132.529 460.274,-141.663 467.141,-143.017"/>
</g>
<!-- Node_levelthree&#45;&gt;Node___stack_chk_fail -->
<g id="edge14" class="edge"><title>Node_levelthree&#45;&gt;Node___stack_chk_fail</title>
<path fill="none" stroke="black" d="M439.015,-169.479C422.621,-149.925 401.888,-117.746 420,-96 446.704,-63.9394 556.704,-51.0248 633.528,-45.8674"/>
<polygon fill="black" stroke="black" points="633.908,-49.3503 643.664,-45.2186 633.461,-42.3646 633.908,-49.3503"/>
</g>
<!-- Node_levelthree&#45;&gt;Node_puts -->
<g id="edge15" class="edge"><title>Node_levelthree&#45;&gt;Node_puts</title>
<path fill="none" stroke="black" d="M476.302,-169.313C487.652,-160.156 501.776,-148.76 514.101,-138.816"/>
<polygon fill="black" stroke="black" points="516.309,-141.532 521.894,-132.529 511.913,-136.084 516.309,-141.532"/>
</g>
<!-- Node_levelthree&#45;&gt;Node_scanf -->
<g id="edge16" class="edge"><title>Node_levelthree&#45;&gt;Node_scanf</title>
<path fill="none" stroke="black" d="M495.643,-169.382C519.926,-159.051 551.333,-145.507 579,-133 579.093,-132.958 579.186,-132.916 579.28,-132.874"/>
<polygon fill="black" stroke="black" points="580.542,-136.145 588.167,-128.79 577.619,-129.785 580.542,-136.145"/>
</g>
<!-- Node_rabbit_hole -->
<g id="node5" class="node"><title>Node_rabbit_hole</title>
<polygon fill="none" stroke="black" points="662,-96.5 662,-132.5 760,-132.5 760,-96.5 662,-96.5"/>
<text text-anchor="middle" x="711" y="-110.8" font-family="Times,serif" font-size="14.00">rabbit_hole</text>
</g>
<!-- Node_rabbit_hole&#45;&gt;Node_rabbit_hole -->
<g id="edge17" class="edge"><title>Node_rabbit_hole&#45;&gt;Node_rabbit_hole</title>
<path fill="none" stroke="black" d="M760.08,-127.564C770.486,-126.238 778,-121.883 778,-114.5 778,-109.77 774.916,-106.284 769.964,-104.039"/>
<polygon fill="black" stroke="black" points="770.642,-100.599 760.08,-101.436 768.859,-107.368 770.642,-100.599"/>
</g>
<!-- Node_rabbit_hole&#45;&gt;Node___stack_chk_fail -->
<g id="edge18" class="edge"><title>Node_rabbit_hole&#45;&gt;Node___stack_chk_fail</title>
<path fill="none" stroke="black" d="M711,-96.3129C711,-88.2895 711,-78.5475 711,-69.5691"/>
<polygon fill="black" stroke="black" points="714.5,-69.5288 711,-59.5288 707.5,-69.5289 714.5,-69.5288"/>
</g>
<!-- Node_levelfour -->
<g id="node6" class="node"><title>Node_levelfour</title>
<polygon fill="none" stroke="black" points="651,-169.5 651,-205.5 731,-205.5 731,-169.5 651,-169.5"/>
<text text-anchor="middle" x="691" y="-183.8" font-family="Times,serif" font-size="14.00">levelfour</text>
</g>
<!-- Node_levelfour&#45;&gt;Node_rabbit_hole -->
<g id="edge19" class="edge"><title>Node_levelfour&#45;&gt;Node_rabbit_hole</title>
<path fill="none" stroke="black" d="M695.841,-169.313C698.126,-161.202 700.905,-151.336 703.457,-142.277"/>
<polygon fill="black" stroke="black" points="706.861,-143.103 706.203,-132.529 700.123,-141.205 706.861,-143.103"/>
</g>
<!-- Node_levelfour&#45;&gt;Node_printf -->
<g id="edge20" class="edge"><title>Node_levelfour&#45;&gt;Node_printf</title>
<path fill="none" stroke="black" d="M650.963,-176.695C615.37,-167.573 561.87,-152.869 507.331,-132.854"/>
<polygon fill="black" stroke="black" points="508.451,-129.537 497.858,-129.327 506.009,-136.097 508.451,-129.537"/>
</g>
<!-- Node_levelfour&#45;&gt;Node___stack_chk_fail -->
<g id="edge21" class="edge"><title>Node_levelfour&#45;&gt;Node___stack_chk_fail</title>
<path fill="none" stroke="black" d="M730.694,-169.384C754.136,-158.375 780.476,-144.104 787,-133 795.33,-118.821 794.575,-110.596 787,-96 780.481,-83.4381 769.507,-73.2038 757.897,-65.1768"/>
<polygon fill="black" stroke="black" points="759.692,-62.1705 749.385,-59.7203 755.915,-68.0636 759.692,-62.1705"/>
</g>
<!-- Node_levelfour&#45;&gt;Node_puts -->
<g id="edge22" class="edge"><title>Node_levelfour&#45;&gt;Node_puts</title>
<path fill="none" stroke="black" d="M655.158,-169.455C635.138,-159.918 609.539,-147.694 579.23,-133.098"/>
<polygon fill="black" stroke="black" points="580.645,-129.895 570.117,-128.707 577.606,-136.201 580.645,-129.895"/>
</g>
<!-- Node_levelfour&#45;&gt;Node_scanf -->
<g id="edge23" class="edge"><title>Node_levelfour&#45;&gt;Node_scanf</title>
<path fill="none" stroke="black" d="M672.845,-169.313C663.448,-160.417 651.82,-149.409 641.533,-139.672"/>
<polygon fill="black" stroke="black" points="643.656,-136.862 633.988,-132.529 638.844,-141.945 643.656,-136.862"/>
</g>
<!-- Node_ayylmao -->
<g id="node7" class="node"><title>Node_ayylmao</title>
<polygon fill="none" stroke="black" points="912,-96.5 912,-132.5 988,-132.5 988,-96.5 912,-96.5"/>
<text text-anchor="middle" x="950" y="-110.8" font-family="Times,serif" font-size="14.00">ayylmao</text>
</g>
<!-- Node_ayylmao&#45;&gt;Node___stack_chk_fail -->
<g id="edge24" class="edge"><title>Node_ayylmao&#45;&gt;Node___stack_chk_fail</title>
<path fill="none" stroke="black" d="M911.875,-98.9969C908.883,-97.9527 905.898,-96.9415 903,-96 865.247,-83.736 822.775,-71.7204 787.395,-62.1932"/>
<polygon fill="black" stroke="black" points="788.179,-58.7798 777.613,-59.5739 786.368,-65.5416 788.179,-58.7798"/>
</g>
<!-- Node_levelfive -->
<g id="node8" class="node"><title>Node_levelfive</title>
<polygon fill="none" stroke="black" points="749,-169.5 749,-205.5 825,-205.5 825,-169.5 749,-169.5"/>
<text text-anchor="middle" x="787" y="-183.8" font-family="Times,serif" font-size="14.00">levelfive</text>
</g>
<!-- Node_levelfive&#45;&gt;Node_ayylmao -->
<g id="edge25" class="edge"><title>Node_levelfive&#45;&gt;Node_ayylmao</title>
<path fill="none" stroke="black" d="M825.216,-169.854C848.227,-159.831 877.722,-146.983 902.259,-136.295"/>
<polygon fill="black" stroke="black" points="903.971,-139.367 911.741,-132.165 901.175,-132.95 903.971,-139.367"/>
</g>
<!-- Node_round -->
<g id="node10" class="node"><title>Node_round</title>
<polygon fill="none" stroke="#7f7f7f" points="834.5,-96.5 834.5,-132.5 893.5,-132.5 893.5,-96.5 834.5,-96.5"/>
<text text-anchor="middle" x="864" y="-110.8" font-family="Times,serif" font-size="14.00" fill="#7f7f7f">round</text>
</g>
<!-- Node_levelfive&#45;&gt;Node_round -->
<g id="edge26" class="edge"><title>Node_levelfive&#45;&gt;Node_round</title>
<path fill="none" stroke="black" d="M805.64,-169.313C815.381,-160.33 827.459,-149.193 838.096,-139.386"/>
<polygon fill="black" stroke="black" points="840.553,-141.881 845.532,-132.529 835.808,-136.735 840.553,-141.881"/>
</g>
<!-- Node_levelfive&#45;&gt;Node_printf -->
<g id="edge27" class="edge"><title>Node_levelfive&#45;&gt;Node_printf</title>
<path fill="none" stroke="black" d="M748.989,-171.61C745.97,-170.654 742.949,-169.768 740,-169 641.67,-143.382 609.293,-162.002 507.466,-132.626"/>
<polygon fill="black" stroke="black" points="508.305,-129.224 497.722,-129.731 506.312,-135.934 508.305,-129.224"/>
</g>
<!-- Node_levelfive&#45;&gt;Node___stack_chk_fail -->
<g id="edge28" class="edge"><title>Node_levelfive&#45;&gt;Node___stack_chk_fail</title>
<path fill="none" stroke="black" d="M825.23,-183.705C898.343,-176.949 1046.52,-155.637 997,-96 970.958,-64.635 864.061,-51.5534 788.62,-46.1684"/>
<polygon fill="black" stroke="black" points="788.41,-42.646 778.195,-45.4585 787.934,-49.6299 788.41,-42.646"/>
</g>
<!-- Node_levelfive&#45;&gt;Node_puts -->
<g id="edge29" class="edge"><title>Node_levelfive&#45;&gt;Node_puts</title>
<path fill="none" stroke="black" d="M748.928,-171.828C745.923,-170.823 742.922,-169.866 740,-169 672.722,-149.055 650.153,-156.47 579.984,-132.916"/>
<polygon fill="black" stroke="black" points="580.831,-129.506 570.237,-129.551 578.547,-136.123 580.831,-129.506"/>
</g>
<!-- Node_levelfive&#45;&gt;Node_scanf -->
<g id="edge30" class="edge"><title>Node_levelfive&#45;&gt;Node_scanf</title>
<path fill="none" stroke="black" d="M748.909,-172.016C721.948,-161.588 685.036,-146.956 653,-133 652.906,-132.959 652.813,-132.918 652.719,-132.877"/>
<polygon fill="black" stroke="black" points="654.352,-129.774 643.796,-128.873 651.486,-136.16 654.352,-129.774"/>
</g>
<!-- Node_main -->
<g id="node9" class="node"><title>Node_main</title>
<polygon fill="none" stroke="black" points="712,-242.5 712,-278.5 766,-278.5 766,-242.5 712,-242.5"/>
<text text-anchor="middle" x="739" y="-256.8" font-family="Times,serif" font-size="14.00">main</text>
</g>
<!-- Node_main&#45;&gt;Node_levelone -->
<g id="edge31" class="edge"><title>Node_main&#45;&gt;Node_levelone</title>
<path fill="none" stroke="black" d="M711.872,-255.632C631.22,-244.134 392.146,-210.049 289.123,-195.361"/>
<polygon fill="black" stroke="black" points="289.396,-191.865 279.002,-193.918 288.408,-198.794 289.396,-191.865"/>
</g>
<!-- Node_main&#45;&gt;Node_leveltwo -->
<g id="edge32" class="edge"><title>Node_main&#45;&gt;Node_leveltwo</title>
<path fill="none" stroke="black" d="M711.998,-249.024C683.644,-238.023 638.477,-220.499 604.024,-207.132"/>
<polygon fill="black" stroke="black" points="605.203,-203.835 594.614,-203.481 602.671,-210.362 605.203,-203.835"/>
</g>
<!-- Node_main&#45;&gt;Node_levelthree -->
<g id="edge33" class="edge"><title>Node_main&#45;&gt;Node_levelthree</title>
<path fill="none" stroke="black" d="M711.769,-254.035C670.141,-245.501 588.032,-227.958 509.751,-206.379"/>
<polygon fill="black" stroke="black" points="510.304,-202.9 499.731,-203.588 508.425,-209.643 510.304,-202.9"/>
</g>
<!-- Node_main&#45;&gt;Node_levelfour -->
<g id="edge34" class="edge"><title>Node_main&#45;&gt;Node_levelfour</title>
<path fill="none" stroke="black" d="M727.381,-242.313C721.603,-233.766 714.506,-223.269 708.12,-213.823"/>
<polygon fill="black" stroke="black" points="711.013,-211.853 702.512,-205.529 705.214,-215.774 711.013,-211.853"/>
</g>
<!-- Node_main&#45;&gt;Node_levelfive -->
<g id="edge35" class="edge"><title>Node_main&#45;&gt;Node_levelfive</title>
<path fill="none" stroke="black" d="M750.619,-242.313C756.397,-233.766 763.494,-223.269 769.88,-213.823"/>
<polygon fill="black" stroke="black" points="772.786,-215.774 775.488,-205.529 766.987,-211.853 772.786,-215.774"/>
</g>
<!-- Node_main&#45;&gt;Node___stack_chk_fail -->
<g id="edge36" class="edge"><title>Node_main&#45;&gt;Node___stack_chk_fail</title>
<path fill="none" stroke="black" d="M766.348,-251.12C830.258,-230.925 986.177,-177.916 1015,-133 1023.88,-119.16 1025.57,-108.595 1015,-96 986.586,-62.1485 868.583,-49.709 788.235,-45.1425"/>
<polygon fill="black" stroke="black" points="788.316,-41.6418 778.142,-44.5987 787.939,-48.6317 788.316,-41.6418"/>
</g>
<!-- Node_main&#45;&gt;Node_puts -->
<g id="edge37" class="edge"><title>Node_main&#45;&gt;Node_puts</title>
<path fill="none" stroke="black" d="M711.961,-246.921C691.862,-237.028 664.197,-222.237 642,-206 622.716,-191.894 620.585,-185.175 603,-169 592.359,-159.212 580.505,-148.585 570.162,-139.401"/>
<polygon fill="black" stroke="black" points="572.399,-136.707 562.592,-132.697 567.758,-141.947 572.399,-136.707"/>
</g>
<!-- Node_exit -->
<g id="node17" class="node"><title>Node_exit</title>
<polygon fill="none" stroke="#7f7f7f" points="988,-169.5 988,-205.5 1042,-205.5 1042,-169.5 988,-169.5"/>
<text text-anchor="middle" x="1015" y="-183.8" font-family="Times,serif" font-size="14.00" fill="#7f7f7f">exit</text>
</g>
<!-- Node_main&#45;&gt;Node_exit -->
<g id="edge38" class="edge"><title>Node_main&#45;&gt;Node_exit</title>
<path fill="none" stroke="black" d="M766.21,-254.948C810.432,-247.186 900.367,-229.882 974,-206 975.426,-205.537 976.872,-205.045 978.325,-204.529"/>
<polygon fill="black" stroke="black" points="979.82,-207.704 987.913,-200.867 977.323,-201.165 979.82,-207.704"/>
</g>
<!-- Node_setvbuf -->
<g id="node18" class="node"><title>Node_setvbuf</title>
<polygon fill="none" stroke="#7f7f7f" points="1060,-169.5 1060,-205.5 1130,-205.5 1130,-169.5 1060,-169.5"/>
<text text-anchor="middle" x="1095" y="-183.8" font-family="Times,serif" font-size="14.00" fill="#7f7f7f">setvbuf</text>
</g>
<!-- Node_main&#45;&gt;Node_setvbuf -->
<g id="edge39" class="edge"><title>Node_main&#45;&gt;Node_setvbuf</title>
<path fill="none" stroke="black" d="M766.13,-256.777C819.207,-251.043 940.456,-235.937 1049.81,-206.032"/>
<polygon fill="black" stroke="black" points="1050.98,-209.339 1059.68,-203.284 1049.11,-202.595 1050.98,-209.339"/>
</g>
<!-- Node_ptrace -->
<g id="node20" class="node"><title>Node_ptrace</title>
<polygon fill="none" stroke="#7f7f7f" points="1148.5,-169.5 1148.5,-205.5 1211.5,-205.5 1211.5,-169.5 1148.5,-169.5"/>
<text text-anchor="middle" x="1180" y="-183.8" font-family="Times,serif" font-size="14.00" fill="#7f7f7f">ptrace</text>
</g>
<!-- Node_main&#45;&gt;Node_ptrace -->
<g id="edge40" class="edge"><title>Node_main&#45;&gt;Node_ptrace</title>
<path fill="none" stroke="black" d="M766.183,-258.393C830.069,-255.261 994.581,-244.112 1138.2,-205.785"/>
<polygon fill="black" stroke="black" points="1139.34,-209.103 1148.07,-203.1 1137.5,-202.349 1139.34,-209.103"/>
</g>
</g>
</svg>
