<?xml version="1.0" encoding="UTF-8" standalone="no"?>
<!DOCTYPE svg PUBLIC "-//W3C//DTD SVG 1.1//EN"
 "http://www.w3.org/Graphics/SVG/1.1/DTD/svg11.dtd">
<!-- Generated by graphviz version 2.38.0 (20140413.2041)
 -->
<!-- Title: Control&#45;flow graph for function &#39;ayylmao(a1)&#39;. Pages: 1 -->
<svg width="977pt" height="416pt"
 viewBox="0.00 0.00 976.50 416.00" xmlns="http://www.w3.org/2000/svg" xmlns:xlink="http://www.w3.org/1999/xlink">
<g id="graph0" class="graph" transform="scale(1 1) rotate(0) translate(4 412)">
<title>Control&#45;flow graph for function &#39;ayylmao(a1)&#39;.</title>
<polygon fill="white" stroke="none" points="-4,4 -4,-412 972.5,-412 972.5,4 -4,4"/>
<text text-anchor="middle" x="484.25" y="-7.8" font-family="Times,serif" font-size="14.00">Control&#45;flow graph for function &#39;ayylmao(a1)&#39;.</text>
<!-- Node0x20ed690 -->
<g id="node1" class="node"><title>Node0x20ed690</title>
<polygon fill="none" stroke="black" points="229,-369.5 229,-407.5 288,-407.5 288,-369.5 229,-369.5"/>
<text text-anchor="start" x="237" y="-392.3" font-family="Times,serif" font-size="14.00">entry:</text>
<text text-anchor="start" x="237" y="-377.3" font-family="Times,serif" font-size="14.00"> a1</text>
</g>
<!-- Node0x20bbff0 -->
<g id="node2" class="node"><title>Node0x20bbff0</title>
<polygon fill="none" stroke="black" points="0,-293.5 0,-331.5 517,-331.5 517,-293.5 0,-293.5"/>
<text text-anchor="start" x="8" y="-316.3" font-family="Times,serif" font-size="14.00">0x8048d56:</text>
<text text-anchor="start" x="8" y="-301.3" font-family="Times,serif" font-size="14.00"> if (*(IntToPtrCastExpr&lt;ptr&gt;(20)) != *(IntToPtrCastExpr&lt;ptr&gt;(20))):</text>
</g>
<!-- Node0x20ed690&#45;&gt;Node0x20bbff0 -->
<g id="edge1" class="edge"><title>Node0x20ed690&#45;&gt;Node0x20bbff0</title>
<path fill="none" stroke="black" d="M258.5,-369.208C258.5,-360.964 258.5,-351.038 258.5,-341.862"/>
<polygon fill="black" stroke="black" points="262,-341.582 258.5,-331.582 255,-341.582 262,-341.582"/>
</g>
<!-- Node0x2180010 -->
<g id="node3" class="node"><title>Node0x2180010</title>
<polygon fill="none" stroke="black" points="129,-203.5 129,-241.5 278,-241.5 278,-203.5 129,-203.5"/>
<text text-anchor="start" x="137" y="-226.3" font-family="Times,serif" font-size="14.00">0x8048dd2:</text>
<text text-anchor="start" x="137" y="-211.3" font-family="Times,serif" font-size="14.00"> __stack_chk_fail()</text>
</g>
<!-- Node0x20bbff0&#45;&gt;Node0x2180010 -->
<g id="edge2" class="edge"><title>Node0x20bbff0&#45;&gt;Node0x2180010</title>
<path fill="none" stroke="black" d="M53.2047,-293.41C37.3898,-288.622 25.0241,-282.591 18.5,-275 14.1548,-269.944 14.2667,-265.15 18.5,-260 31.5866,-244.079 76.55,-234.99 118.869,-229.863"/>
<polygon fill="black" stroke="black" points="119.442,-233.321 128.979,-228.705 118.645,-226.366 119.442,-233.321"/>
<text text-anchor="middle" x="252" y="-263.8" font-family="Times,serif" font-size="14.00">*(IntToPtrCastExpr&lt;ptr&gt;(20)) != *(IntToPtrCastExpr&lt;ptr&gt;(20))</text>
</g>
<!-- Node0x20bca50 -->
<g id="node4" class="node"><title>Node0x20bca50</title>
<polygon fill="none" stroke="black" points="221.5,-97.5 221.5,-165.5 617.5,-165.5 617.5,-97.5 221.5,-97.5"/>
<text text-anchor="start" x="229.5" y="-150.3" font-family="Times,serif" font-size="14.00">0x8048dd9:</text>
<text text-anchor="start" x="229.5" y="-135.3" font-family="Times,serif" font-size="14.00"> v1</text>
<text text-anchor="start" x="229.5" y="-120.3" font-family="Times,serif" font-size="14.00"> g1 = v1</text>
<text text-anchor="start" x="229.5" y="-105.3" font-family="Times,serif" font-size="14.00"> return (1597463007 &#45; (BitCastExpr&lt;int32&gt;(a1) / 2))</text>
</g>
<!-- Node0x20bbff0&#45;&gt;Node0x20bca50 -->
<g id="edge3" class="edge"><title>Node0x20bbff0&#45;&gt;Node0x20bca50</title>
<path fill="none" stroke="black" d="M450.332,-293.388C466.425,-288.617 479.028,-282.596 485.5,-275 511.011,-245.059 486.805,-203.607 460.818,-173.127"/>
<polygon fill="black" stroke="black" points="463.442,-170.811 454.202,-165.628 458.193,-175.442 463.442,-170.811"/>
<text text-anchor="middle" x="732" y="-218.8" font-family="Times,serif" font-size="14.00">*(IntToPtrCastExpr&lt;ptr&gt;(20)) == *(IntToPtrCastExpr&lt;ptr&gt;(20))</text>
</g>
<!-- Node0x2180010&#45;&gt;Node0x20bca50 -->
<g id="edge4" class="edge"><title>Node0x2180010&#45;&gt;Node0x20bca50</title>
<path fill="none" stroke="black" d="M247.211,-203.49C270.912,-193.724 301.108,-181.282 329.579,-169.551"/>
<polygon fill="black" stroke="black" points="331.243,-172.651 339.156,-165.605 328.577,-166.178 331.243,-172.651"/>
</g>
<!-- Node0x20d3540 -->
<g id="node5" class="node"><title>Node0x20d3540</title>
<polygon fill="none" stroke="black" points="392.5,-23.5 392.5,-59.5 446.5,-59.5 446.5,-23.5 392.5,-23.5"/>
<text text-anchor="start" x="400.5" y="-37.8" font-family="Times,serif" font-size="14.00">exit:</text>
</g>
<!-- Node0x20bca50&#45;&gt;Node0x20d3540 -->
<g id="edge5" class="edge"><title>Node0x20bca50&#45;&gt;Node0x20d3540</title>
<path fill="none" stroke="black" d="M419.5,-97.4817C419.5,-88.3281 419.5,-78.4972 419.5,-69.7155"/>
<polygon fill="black" stroke="black" points="423,-69.6402 419.5,-59.6402 416,-69.6403 423,-69.6402"/>
</g>
</g>
</svg>
