<?xml version="1.0" encoding="UTF-8" standalone="no"?>
<!DOCTYPE svg PUBLIC "-//W3C//DTD SVG 1.1//EN"
 "http://www.w3.org/Graphics/SVG/1.1/DTD/svg11.dtd">
<!-- Generated by graphviz version 2.38.0 (20140413.2041)
 -->
<!-- Title: Call graph of the module. Pages: 1 -->
<svg width="420pt" height="214pt"
 viewBox="0.00 0.00 420.00 214.00" xmlns="http://www.w3.org/2000/svg" xmlns:xlink="http://www.w3.org/1999/xlink">
<g id="graph0" class="graph" transform="scale(1 1) rotate(0) translate(4 210)">
<title>Call graph of the module.</title>
<polygon fill="white" stroke="none" points="-4,4 -4,-210 416,-210 416,4 -4,4"/>
<text text-anchor="middle" x="206" y="-7.8" font-family="Times,serif" font-size="14.00">Call graph of the module.</text>
<!-- Node_transcheck -->
<g id="node1" class="node"><title>Node_transcheck</title>
<polygon fill="none" stroke="black" points="19,-96.5 19,-132.5 116,-132.5 116,-96.5 19,-96.5"/>
<text text-anchor="middle" x="67.5" y="-110.8" font-family="Times,serif" font-size="14.00">transcheck</text>
</g>
<!-- Node_strlen -->
<g id="node6" class="node"><title>Node_strlen</title>
<polygon fill="none" stroke="#7f7f7f" points="0,-23.5 0,-59.5 59,-59.5 59,-23.5 0,-23.5"/>
<text text-anchor="middle" x="29.5" y="-37.8" font-family="Times,serif" font-size="14.00" fill="#7f7f7f">strlen</text>
</g>
<!-- Node_transcheck&#45;&gt;Node_strlen -->
<g id="edge1" class="edge"><title>Node_transcheck&#45;&gt;Node_strlen</title>
<path fill="none" stroke="black" d="M58.3013,-96.3129C53.8203,-87.9407 48.3379,-77.6971 43.3634,-68.4026"/>
<polygon fill="black" stroke="black" points="46.4187,-66.6939 38.614,-59.5288 40.247,-69.9971 46.4187,-66.6939"/>
</g>
<!-- Node_calloc -->
<g id="node8" class="node"><title>Node_calloc</title>
<polygon fill="none" stroke="#7f7f7f" points="77,-23.5 77,-59.5 136,-59.5 136,-23.5 77,-23.5"/>
<text text-anchor="middle" x="106.5" y="-37.8" font-family="Times,serif" font-size="14.00" fill="#7f7f7f">calloc</text>
</g>
<!-- Node_transcheck&#45;&gt;Node_calloc -->
<g id="edge2" class="edge"><title>Node_transcheck&#45;&gt;Node_calloc</title>
<path fill="none" stroke="black" d="M76.9408,-96.3129C81.5396,-87.9407 87.1664,-77.6971 92.2718,-68.4026"/>
<polygon fill="black" stroke="black" points="95.3993,-69.9787 97.1461,-59.5288 89.264,-66.6085 95.3993,-69.9787"/>
</g>
<!-- Node_main -->
<g id="node2" class="node"><title>Node_main</title>
<polygon fill="none" stroke="black" points="210.5,-169.5 210.5,-205.5 264.5,-205.5 264.5,-169.5 210.5,-169.5"/>
<text text-anchor="middle" x="237.5" y="-183.8" font-family="Times,serif" font-size="14.00">main</text>
</g>
<!-- Node_main&#45;&gt;Node_transcheck -->
<g id="edge3" class="edge"><title>Node_main&#45;&gt;Node_transcheck</title>
<path fill="none" stroke="black" d="M210.187,-175.093C185.372,-164.729 148.138,-149.178 117.927,-136.561"/>
<polygon fill="black" stroke="black" points="118.966,-133.202 108.39,-132.578 116.269,-139.661 118.966,-133.202"/>
</g>
<!-- Node_printf -->
<g id="node3" class="node"><title>Node_printf</title>
<polygon fill="none" stroke="#7f7f7f" points="134,-96.5 134,-132.5 191,-132.5 191,-96.5 134,-96.5"/>
<text text-anchor="middle" x="162.5" y="-110.8" font-family="Times,serif" font-size="14.00" fill="#7f7f7f">printf</text>
</g>
<!-- Node_main&#45;&gt;Node_printf -->
<g id="edge4" class="edge"><title>Node_main&#45;&gt;Node_printf</title>
<path fill="none" stroke="black" d="M219.345,-169.313C209.948,-160.417 198.32,-149.409 188.033,-139.672"/>
<polygon fill="black" stroke="black" points="190.156,-136.862 180.488,-132.529 185.344,-141.945 190.156,-136.862"/>
</g>
<!-- Node_fflush -->
<g id="node4" class="node"><title>Node_fflush</title>
<polygon fill="none" stroke="#7f7f7f" points="209,-96.5 209,-132.5 266,-132.5 266,-96.5 209,-96.5"/>
<text text-anchor="middle" x="237.5" y="-110.8" font-family="Times,serif" font-size="14.00" fill="#7f7f7f">fflush</text>
</g>
<!-- Node_main&#45;&gt;Node_fflush -->
<g id="edge5" class="edge"><title>Node_main&#45;&gt;Node_fflush</title>
<path fill="none" stroke="black" d="M237.5,-169.313C237.5,-161.289 237.5,-151.547 237.5,-142.569"/>
<polygon fill="black" stroke="black" points="241,-142.529 237.5,-132.529 234,-142.529 241,-142.529"/>
</g>
<!-- Node_puts -->
<g id="node5" class="node"><title>Node_puts</title>
<polygon fill="none" stroke="#7f7f7f" points="284.5,-96.5 284.5,-132.5 338.5,-132.5 338.5,-96.5 284.5,-96.5"/>
<text text-anchor="middle" x="311.5" y="-110.8" font-family="Times,serif" font-size="14.00" fill="#7f7f7f">puts</text>
</g>
<!-- Node_main&#45;&gt;Node_puts -->
<g id="edge6" class="edge"><title>Node_main&#45;&gt;Node_puts</title>
<path fill="none" stroke="black" d="M255.413,-169.313C264.685,-160.417 276.158,-149.409 286.307,-139.672"/>
<polygon fill="black" stroke="black" points="288.959,-141.978 293.752,-132.529 284.113,-136.927 288.959,-141.978"/>
</g>
<!-- Node_scanf -->
<g id="node7" class="node"><title>Node_scanf</title>
<polygon fill="none" stroke="#7f7f7f" points="357,-96.5 357,-132.5 412,-132.5 412,-96.5 357,-96.5"/>
<text text-anchor="middle" x="384.5" y="-110.8" font-family="Times,serif" font-size="14.00" fill="#7f7f7f">scanf</text>
</g>
<!-- Node_main&#45;&gt;Node_scanf -->
<g id="edge7" class="edge"><title>Node_main&#45;&gt;Node_scanf</title>
<path fill="none" stroke="black" d="M264.805,-173.312C288.173,-162.025 322.017,-145.679 347.759,-133.246"/>
<polygon fill="black" stroke="black" points="349.36,-136.359 356.842,-128.858 346.315,-130.056 349.36,-136.359"/>
</g>
</g>
</svg>
