<?xml version="1.0" encoding="UTF-8" standalone="no"?>
<!DOCTYPE svg PUBLIC "-//W3C//DTD SVG 1.1//EN"
 "http://www.w3.org/Graphics/SVG/1.1/DTD/svg11.dtd">
<!-- Generated by graphviz version 2.38.0 (20140413.2041)
 -->
<!-- Title: Control&#45;flow graph for function &#39;main(argc, **argv)&#39;. Pages: 1 -->
<svg width="1206pt" height="747pt"
 viewBox="0.00 0.00 1206.00 747.00" xmlns="http://www.w3.org/2000/svg" xmlns:xlink="http://www.w3.org/1999/xlink">
<g id="graph0" class="graph" transform="scale(1 1) rotate(0) translate(4 743)">
<title>Control&#45;flow graph for function &#39;main(argc, **argv)&#39;.</title>
<polygon fill="white" stroke="none" points="-4,4 -4,-743 1202,-743 1202,4 -4,4"/>
<text text-anchor="middle" x="599" y="-7.8" font-family="Times,serif" font-size="14.00">Control&#45;flow graph for function &#39;main(argc, **argv)&#39;.</text>
<!-- Node0x18dd1a0 -->
<g id="node1" class="node"><title>Node0x18dd1a0</title>
<polygon fill="none" stroke="black" points="410.5,-685.5 410.5,-738.5 469.5,-738.5 469.5,-685.5 410.5,-685.5"/>
<text text-anchor="start" x="418.5" y="-723.3" font-family="Times,serif" font-size="14.00">entry:</text>
<text text-anchor="start" x="418.5" y="-708.3" font-family="Times,serif" font-size="14.00"> argc</text>
<text text-anchor="start" x="418.5" y="-693.3" font-family="Times,serif" font-size="14.00"> argv</text>
</g>
<!-- Node0x18df130 -->
<g id="node2" class="node"><title>Node0x18df130</title>
<polygon fill="none" stroke="black" points="125.5,-354.5 125.5,-647.5 754.5,-647.5 754.5,-354.5 125.5,-354.5"/>
<text text-anchor="start" x="133.5" y="-632.3" font-family="Times,serif" font-size="14.00">puts(&quot; _____ __ &quot;)</text>
<text text-anchor="start" x="133.5" y="-617.3" font-family="Times,serif" font-size="14.00"> puts(&quot;/__ \\_ __ __ _ _ __ ___ / _| ___ _ __ _ __ ___ ___ _ __ &quot;)</text>
<text text-anchor="start" x="133.5" y="-602.3" font-family="Times,serif" font-size="14.00"> puts(&quot; / /\\/ &#39;__/ _` | &#39;_ \\/ __| |_ / _ \\| &#39;__| &#39;_ ` _ \\ / _ \\ &#39;__|&quot;)</text>
<text text-anchor="start" x="133.5" y="-587.3" font-family="Times,serif" font-size="14.00"> puts(&quot; / / | | | (_| | | | \\__ \\ _| (_) | | | | | | | | __/ | &quot;)</text>
<text text-anchor="start" x="133.5" y="-572.3" font-family="Times,serif" font-size="14.00"> puts(&quot; \\/ |_| \\__,_|_| |_|___/_| \\___/|_| |_| |_| |_|\\___|_| &quot;)</text>
<text text-anchor="start" x="133.5" y="-557.3" font-family="Times,serif" font-size="14.00"> puts(&quot;xxxxxxxxxxxxxxxxxxxxxxxxxxxxxxxxxxxxxxxxxxxxxxxxxxxxxxxxxxxxxxxxxxx&quot;)</text>
<text text-anchor="start" x="133.5" y="-542.3" font-family="Times,serif" font-size="14.00"> puts(&quot; ~ Anagram Checker w/o any Steganography bullshit ~ &quot;)</text>
<text text-anchor="start" x="133.5" y="-527.3" font-family="Times,serif" font-size="14.00"> puts(&quot; (Too bad this isn&#39;t worth 2999 points) &quot;)</text>
<text text-anchor="start" x="133.5" y="-512.3" font-family="Times,serif" font-size="14.00"> puts(&quot;xxxxxxxxxxxxxxxxxxxxxxxxxxxxxxxxxxxxxxxxxxxxxxxxxxxxxxxxxxxxxxxxxxx&quot;)</text>
<text text-anchor="start" x="133.5" y="-497.3" font-family="Times,serif" font-size="14.00"> fflush(BitCastExpr&lt;ptr&gt;(g1))</text>
<text text-anchor="start" x="133.5" y="-482.3" font-family="Times,serif" font-size="14.00"> printf(&quot;Word #1: &quot;)</text>
<text text-anchor="start" x="133.5" y="-467.3" font-family="Times,serif" font-size="14.00"> fflush(BitCastExpr&lt;ptr&gt;(g1))</text>
<text text-anchor="start" x="133.5" y="-452.3" font-family="Times,serif" font-size="14.00"> v1</text>
<text text-anchor="start" x="133.5" y="-437.3" font-family="Times,serif" font-size="14.00"> scanf(&quot;%s&quot;, &amp;(v1))</text>
<text text-anchor="start" x="133.5" y="-422.3" font-family="Times,serif" font-size="14.00"> printf(&quot;Word #2: &quot;)</text>
<text text-anchor="start" x="133.5" y="-407.3" font-family="Times,serif" font-size="14.00"> fflush(BitCastExpr&lt;ptr&gt;(g1))</text>
<text text-anchor="start" x="133.5" y="-392.3" font-family="Times,serif" font-size="14.00"> v2</text>
<text text-anchor="start" x="133.5" y="-377.3" font-family="Times,serif" font-size="14.00"> scanf(&quot;%s&quot;, &amp;(v2))</text>
<text text-anchor="start" x="133.5" y="-362.3" font-family="Times,serif" font-size="14.00"> fflush(BitCastExpr&lt;ptr&gt;(g1))</text>
</g>
<!-- Node0x18dd1a0&#45;&gt;Node0x18df130 -->
<g id="edge1" class="edge"><title>Node0x18dd1a0&#45;&gt;Node0x18df130</title>
<path fill="none" stroke="black" d="M440,-685.372C440,-677.443 440,-668.064 440,-657.809"/>
<polygon fill="black" stroke="black" points="443.5,-657.726 440,-647.726 436.5,-657.726 443.5,-657.726"/>
</g>
<!-- Node0x18dd120 -->
<g id="node3" class="node"><title>Node0x18dd120</title>
<polygon fill="none" stroke="black" points="161,-278.5 161,-316.5 719,-316.5 719,-278.5 161,-278.5"/>
<text text-anchor="start" x="169" y="-301.3" font-family="Times,serif" font-size="14.00">if (transcheck(BitCastExpr&lt;ptr&gt;(&amp;(v1)), BitCastExpr&lt;ptr&gt;(&amp;(v2))) == 0):</text>
<text text-anchor="start" x="169" y="-286.3" font-family="Times,serif" font-size="14.00"> else:</text>
</g>
<!-- Node0x18df130&#45;&gt;Node0x18dd120 -->
<g id="edge2" class="edge"><title>Node0x18df130&#45;&gt;Node0x18dd120</title>
<path fill="none" stroke="black" d="M440,-354.361C440,-344.249 440,-334.894 440,-326.847"/>
<polygon fill="black" stroke="black" points="443.5,-326.734 440,-316.734 436.5,-326.734 443.5,-326.734"/>
</g>
<!-- Node0x18d3320 -->
<g id="node4" class="node"><title>Node0x18d3320</title>
<polygon fill="none" stroke="black" points="0,-173.5 0,-226.5 406,-226.5 406,-173.5 0,-173.5"/>
<text text-anchor="start" x="8" y="-211.3" font-family="Times,serif" font-size="14.00">0x804881b:</text>
<text text-anchor="start" x="8" y="-196.3" font-family="Times,serif" font-size="14.00"> printf(&quot;%s and %s are not anagrams\n&quot;, &amp;(v1), &amp;(v2))</text>
<text text-anchor="start" x="8" y="-181.3" font-family="Times,serif" font-size="14.00"> fflush(BitCastExpr&lt;ptr&gt;(g1))</text>
</g>
<!-- Node0x18dd120&#45;&gt;Node0x18d3320 -->
<g id="edge3" class="edge"><title>Node0x18dd120&#45;&gt;Node0x18d3320</title>
<path fill="none" stroke="black" d="M202.514,-278.445C187.405,-273.602 175.601,-267.55 169,-260 162.463,-252.524 163.877,-243.602 168.728,-234.987"/>
<polygon fill="black" stroke="black" points="171.757,-236.759 174.556,-226.541 165.996,-232.783 171.757,-236.759"/>
<text text-anchor="middle" x="425.5" y="-248.8" font-family="Times,serif" font-size="14.00">transcheck(BitCastExpr&lt;ptr&gt;(&amp;(v1)), BitCastExpr&lt;ptr&gt;(&amp;(v2))) == 0</text>
</g>
<!-- Node0x18df5c0 -->
<g id="node5" class="node"><title>Node0x18df5c0</title>
<polygon fill="none" stroke="black" points="487,-173.5 487,-226.5 865,-226.5 865,-173.5 487,-173.5"/>
<text text-anchor="start" x="495" y="-211.3" font-family="Times,serif" font-size="14.00">0x80487f0:</text>
<text text-anchor="start" x="495" y="-196.3" font-family="Times,serif" font-size="14.00"> printf(&quot;%s and %s are anagrams\n&quot;, &amp;(v1), &amp;(v2))</text>
<text text-anchor="start" x="495" y="-181.3" font-family="Times,serif" font-size="14.00"> fflush(BitCastExpr&lt;ptr&gt;(g1))</text>
</g>
<!-- Node0x18dd120&#45;&gt;Node0x18df5c0 -->
<g id="edge4" class="edge"><title>Node0x18dd120&#45;&gt;Node0x18df5c0</title>
<path fill="none" stroke="black" d="M651.426,-278.447C667.152,-273.645 679.443,-267.601 686,-260 691.609,-253.498 692.553,-245.043 691.261,-236.576"/>
<polygon fill="black" stroke="black" points="694.633,-235.63 688.861,-226.745 687.832,-237.29 694.633,-235.63"/>
<text text-anchor="middle" x="944.5" y="-248.8" font-family="Times,serif" font-size="14.00">transcheck(BitCastExpr&lt;ptr&gt;(&amp;(v1)), BitCastExpr&lt;ptr&gt;(&amp;(v2))) != 0</text>
</g>
<!-- Node0x18d3250 -->
<g id="node6" class="node"><title>Node0x18d3250</title>
<polygon fill="none" stroke="black" points="444.5,-97.5 444.5,-135.5 545.5,-135.5 545.5,-97.5 444.5,-97.5"/>
<text text-anchor="start" x="452.5" y="-120.3" font-family="Times,serif" font-size="14.00">0x8048844:</text>
<text text-anchor="start" x="452.5" y="-105.3" font-family="Times,serif" font-size="14.00"> return 0</text>
</g>
<!-- Node0x18d3320&#45;&gt;Node0x18d3250 -->
<g id="edge5" class="edge"><title>Node0x18d3320&#45;&gt;Node0x18d3250</title>
<path fill="none" stroke="black" d="M294.589,-173.437C340.171,-160.714 394.009,-145.687 434.4,-134.414"/>
<polygon fill="black" stroke="black" points="435.414,-137.765 444.105,-131.705 433.532,-131.023 435.414,-137.765"/>
</g>
<!-- Node0x18df5c0&#45;&gt;Node0x18d3250 -->
<g id="edge6" class="edge"><title>Node0x18df5c0&#45;&gt;Node0x18d3250</title>
<path fill="none" stroke="black" d="M619.227,-173.437C595.262,-162.646 567.616,-150.197 544.497,-139.787"/>
<polygon fill="black" stroke="black" points="545.775,-136.524 535.22,-135.61 542.901,-142.907 545.775,-136.524"/>
</g>
<!-- Node0x18d3410 -->
<g id="node7" class="node"><title>Node0x18d3410</title>
<polygon fill="none" stroke="black" points="468,-23.5 468,-59.5 522,-59.5 522,-23.5 468,-23.5"/>
<text text-anchor="start" x="476" y="-37.8" font-family="Times,serif" font-size="14.00">exit:</text>
</g>
<!-- Node0x18d3250&#45;&gt;Node0x18d3410 -->
<g id="edge7" class="edge"><title>Node0x18d3250&#45;&gt;Node0x18d3410</title>
<path fill="none" stroke="black" d="M495,-97.4551C495,-89.2008 495,-79.2377 495,-70.0742"/>
<polygon fill="black" stroke="black" points="498.5,-69.8347 495,-59.8347 491.5,-69.8347 498.5,-69.8347"/>
</g>
</g>
</svg>
