<?xml version="1.0" encoding="UTF-8" standalone="no"?>
<!DOCTYPE svg PUBLIC "-//W3C//DTD SVG 1.1//EN"
 "http://www.w3.org/Graphics/SVG/1.1/DTD/svg11.dtd">
<!-- Generated by graphviz version 2.38.0 (20140413.2041)
 -->
<!-- Title: Control&#45;flow graph for function &#39;transcheck(*str, *str2)&#39;. Pages: 1 -->
<svg width="2124pt" height="1597pt"
 viewBox="0.00 0.00 2124.00 1597.00" xmlns="http://www.w3.org/2000/svg" xmlns:xlink="http://www.w3.org/1999/xlink">
<g id="graph0" class="graph" transform="scale(1 1) rotate(0) translate(4 1593)">
<title>Control&#45;flow graph for function &#39;transcheck(*str, *str2)&#39;.</title>
<polygon fill="white" stroke="none" points="-4,4 -4,-1593 2120,-1593 2120,4 -4,4"/>
<text text-anchor="middle" x="1058" y="-7.8" font-family="Times,serif" font-size="14.00">Control&#45;flow graph for function &#39;transcheck(*str, *str2)&#39;.</text>
<!-- Node0x18dc1d0 -->
<g id="node1" class="node"><title>Node0x18dc1d0</title>
<polygon fill="none" stroke="black" points="1874.5,-1535.5 1874.5,-1588.5 1933.5,-1588.5 1933.5,-1535.5 1874.5,-1535.5"/>
<text text-anchor="start" x="1882.5" y="-1573.3" font-family="Times,serif" font-size="14.00">entry:</text>
<text text-anchor="start" x="1882.5" y="-1558.3" font-family="Times,serif" font-size="14.00"> str</text>
<text text-anchor="start" x="1882.5" y="-1543.3" font-family="Times,serif" font-size="14.00"> str2</text>
</g>
<!-- Node0x1835390 -->
<g id="node2" class="node"><title>Node0x1835390</title>
<polygon fill="none" stroke="black" points="1835.5,-1444.5 1835.5,-1497.5 1972.5,-1497.5 1972.5,-1444.5 1835.5,-1444.5"/>
<text text-anchor="start" x="1843.5" y="-1482.3" font-family="Times,serif" font-size="14.00">v1 = 0</text>
<text text-anchor="start" x="1843.5" y="-1467.3" font-family="Times,serif" font-size="14.00"> len = strlen(str)</text>
<text text-anchor="start" x="1843.5" y="-1452.3" font-family="Times,serif" font-size="14.00"> result = 0</text>
</g>
<!-- Node0x18dc1d0&#45;&gt;Node0x1835390 -->
<g id="edge1" class="edge"><title>Node0x18dc1d0&#45;&gt;Node0x1835390</title>
<path fill="none" stroke="black" d="M1904,-1535.26C1904,-1526.68 1904,-1516.96 1904,-1507.76"/>
<polygon fill="black" stroke="black" points="1907.5,-1507.68 1904,-1497.68 1900.5,-1507.68 1907.5,-1507.68"/>
</g>
<!-- Node0x186b2a0 -->
<g id="node3" class="node"><title>Node0x186b2a0</title>
<polygon fill="none" stroke="black" points="1813,-1370.5 1813,-1406.5 1995,-1406.5 1995,-1370.5 1813,-1370.5"/>
<text text-anchor="start" x="1821" y="-1384.8" font-family="Times,serif" font-size="14.00">if (len == strlen(str2)):</text>
</g>
<!-- Node0x1835390&#45;&gt;Node0x186b2a0 -->
<g id="edge2" class="edge"><title>Node0x1835390&#45;&gt;Node0x186b2a0</title>
<path fill="none" stroke="black" d="M1904,-1444.09C1904,-1435.46 1904,-1425.82 1904,-1417.07"/>
<polygon fill="black" stroke="black" points="1907.5,-1416.97 1904,-1406.97 1900.5,-1416.97 1907.5,-1416.97"/>
</g>
<!-- Node0x18be6f0 -->
<g id="node4" class="node"><title>Node0x18be6f0</title>
<polygon fill="none" stroke="black" points="1593,-1190.5 1593,-1318.5 1967,-1318.5 1967,-1190.5 1593,-1190.5"/>
<text text-anchor="start" x="1601" y="-1303.3" font-family="Times,serif" font-size="14.00">mem = PtrToIntCastExpr&lt;int32&gt;(calloc(26, 4))</text>
<text text-anchor="start" x="1601" y="-1288.3" font-family="Times,serif" font-size="14.00"> mem2 = PtrToIntCastExpr&lt;int32&gt;(calloc(26, 4))</text>
<text text-anchor="start" x="1601" y="-1273.3" font-family="Times,serif" font-size="14.00"> v2 = *(str)</text>
<text text-anchor="start" x="1601" y="-1258.3" font-family="Times,serif" font-size="14.00"> v3 = 0</text>
<text text-anchor="start" x="1601" y="-1243.3" font-family="Times,serif" font-size="14.00"> v4</text>
<text text-anchor="start" x="1601" y="-1228.3" font-family="Times,serif" font-size="14.00"> v5</text>
<text text-anchor="start" x="1601" y="-1213.3" font-family="Times,serif" font-size="14.00"> v6</text>
<text text-anchor="start" x="1601" y="-1198.3" font-family="Times,serif" font-size="14.00"> v7</text>
</g>
<!-- Node0x186b2a0&#45;&gt;Node0x18be6f0 -->
<g id="edge3" class="edge"><title>Node0x186b2a0&#45;&gt;Node0x18be6f0</title>
<path fill="none" stroke="black" d="M1865.62,-1370.36C1856.6,-1365.25 1847.46,-1359.09 1840,-1352 1832.23,-1344.61 1825.06,-1336 1818.57,-1327.04"/>
<polygon fill="black" stroke="black" points="1821.39,-1324.95 1812.82,-1318.72 1815.63,-1328.94 1821.39,-1324.95"/>
<text text-anchor="middle" x="1908.5" y="-1340.8" font-family="Times,serif" font-size="14.00">len == strlen(str2)</text>
</g>
<!-- Node0x18bddb0 -->
<g id="node5" class="node"><title>Node0x18bddb0</title>
<polygon fill="none" stroke="black" points="1957.5,-1133.5 1957.5,-1171.5 2070.5,-1171.5 2070.5,-1133.5 1957.5,-1133.5"/>
<text text-anchor="start" x="1965.5" y="-1156.3" font-family="Times,serif" font-size="14.00">0x80486d9:</text>
<text text-anchor="start" x="1965.5" y="-1141.3" font-family="Times,serif" font-size="14.00"> return result</text>
</g>
<!-- Node0x186b2a0&#45;&gt;Node0x18bddb0 -->
<g id="edge4" class="edge"><title>Node0x186b2a0&#45;&gt;Node0x18bddb0</title>
<path fill="none" stroke="black" d="M1955.26,-1370.3C1963.55,-1365.52 1971.28,-1359.51 1977,-1352 2015.43,-1301.58 2018.03,-1223.34 2016.24,-1181.75"/>
<polygon fill="black" stroke="black" points="2019.72,-1181.31 2015.68,-1171.52 2012.73,-1181.7 2019.72,-1181.31"/>
<text text-anchor="middle" x="2050.5" y="-1340.8" font-family="Times,serif" font-size="14.00">len != strlen(str2)</text>
</g>
<!-- Node0x18df790 -->
<g id="node6" class="node"><title>Node0x18df790</title>
<polygon fill="none" stroke="black" points="1694.5,-1078.5 1694.5,-1114.5 1793.5,-1114.5 1793.5,-1078.5 1694.5,-1078.5"/>
<text text-anchor="start" x="1702.5" y="-1092.8" font-family="Times,serif" font-size="14.00">if (v2 != 0):</text>
</g>
<!-- Node0x18be6f0&#45;&gt;Node0x18df790 -->
<g id="edge5" class="edge"><title>Node0x18be6f0&#45;&gt;Node0x18df790</title>
<path fill="none" stroke="black" d="M1765.46,-1190.5C1760.18,-1167.6 1754.48,-1142.9 1750.28,-1124.72"/>
<polygon fill="black" stroke="black" points="1753.66,-1123.78 1748,-1114.83 1746.84,-1125.36 1753.66,-1123.78"/>
</g>
<!-- Node0x18e1aa0 -->
<g id="node7" class="node"><title>Node0x18e1aa0</title>
<polygon fill="none" stroke="black" points="1895,-23.5 1895,-59.5 1949,-59.5 1949,-23.5 1895,-23.5"/>
<text text-anchor="start" x="1903" y="-37.8" font-family="Times,serif" font-size="14.00">exit:</text>
</g>
<!-- Node0x18bddb0&#45;&gt;Node0x18e1aa0 -->
<g id="edge6" class="edge"><title>Node0x18bddb0&#45;&gt;Node0x18e1aa0</title>
<path fill="none" stroke="black" d="M2015.18,-1133.45C2016.36,-1113.79 2018,-1081.43 2018,-1053.5 2018,-1053.5 2018,-1053.5 2018,-145.5 2018,-108.885 1985.13,-79.8546 1957.86,-62.069"/>
<polygon fill="black" stroke="black" points="1959.59,-59.0212 1949.25,-56.6942 1955.88,-64.959 1959.59,-59.0212"/>
</g>
<!-- Node0x187b850 -->
<g id="node8" class="node"><title>Node0x187b850</title>
<polygon fill="none" stroke="black" points="1205.5,-974.5 1205.5,-1010.5 1480.5,-1010.5 1480.5,-974.5 1205.5,-974.5"/>
<text text-anchor="start" x="1213.5" y="-988.8" font-family="Times,serif" font-size="14.00">v8 = PtrToIntCastExpr&lt;int32&gt;(str)</text>
</g>
<!-- Node0x18df790&#45;&gt;Node0x187b850 -->
<g id="edge7" class="edge"><title>Node0x18df790&#45;&gt;Node0x187b850</title>
<path fill="none" stroke="black" d="M1694.43,-1082.89C1625.8,-1065.43 1501.19,-1033.74 1420.28,-1013.16"/>
<polygon fill="black" stroke="black" points="1420.71,-1009.65 1410.15,-1010.58 1418.98,-1016.44 1420.71,-1009.65"/>
<text text-anchor="middle" x="1629" y="-1048.8" font-family="Times,serif" font-size="14.00">v2 != 0</text>
</g>
<!-- Node0x18da750 -->
<g id="node9" class="node"><title>Node0x18da750</title>
<polygon fill="none" stroke="black" points="1498.5,-958.5 1498.5,-1026.5 1989.5,-1026.5 1989.5,-958.5 1498.5,-958.5"/>
<text text-anchor="start" x="1506.5" y="-1011.3" font-family="Times,serif" font-size="14.00">v6 = (4 * v3)</text>
<text text-anchor="start" x="1506.5" y="-996.3" font-family="Times,serif" font-size="14.00"> v5 = *(IntToPtrCastExpr&lt;ptr&gt;((v6 + mem2)))</text>
<text text-anchor="start" x="1506.5" y="-981.3" font-family="Times,serif" font-size="14.00"> v7 = (1 if (*(IntToPtrCastExpr&lt;ptr&gt;((v6 + mem))) == v5) else 0)</text>
<text text-anchor="start" x="1506.5" y="-966.3" font-family="Times,serif" font-size="14.00"> v4 = (v3 + 1)</text>
</g>
<!-- Node0x18df790&#45;&gt;Node0x18da750 -->
<g id="edge8" class="edge"><title>Node0x18df790&#45;&gt;Node0x18da750</title>
<path fill="none" stroke="black" d="M1744,-1078.2C1744,-1066.85 1744,-1051.49 1744,-1036.95"/>
<polygon fill="black" stroke="black" points="1747.5,-1036.59 1744,-1026.59 1740.5,-1036.59 1747.5,-1036.59"/>
<text text-anchor="middle" x="1774" y="-1048.8" font-family="Times,serif" font-size="14.00">v2 == 0</text>
</g>
<!-- Node0x18de840 -->
<g id="node10" class="node"><title>Node0x18de840</title>
<polygon fill="none" stroke="black" points="1294.5,-884.5 1294.5,-920.5 1391.5,-920.5 1391.5,-884.5 1294.5,-884.5"/>
<text text-anchor="start" x="1302.5" y="-898.8" font-family="Times,serif" font-size="14.00">while True:</text>
</g>
<!-- Node0x187b850&#45;&gt;Node0x18de840 -->
<g id="edge9" class="edge"><title>Node0x187b850&#45;&gt;Node0x18de840</title>
<path fill="none" stroke="black" d="M1343,-974.114C1343,-961.74 1343,-944.869 1343,-930.72"/>
<polygon fill="black" stroke="black" points="1346.5,-930.55 1343,-920.55 1339.5,-930.55 1346.5,-930.55"/>
</g>
<!-- Node0x18e1eb0 -->
<g id="node11" class="node"><title>Node0x18e1eb0</title>
<polygon fill="none" stroke="black" points="1669.5,-884.5 1669.5,-920.5 1800.5,-920.5 1800.5,-884.5 1669.5,-884.5"/>
<text text-anchor="start" x="1677.5" y="-898.8" font-family="Times,serif" font-size="14.00">while (v4 &lt; 26):</text>
</g>
<!-- Node0x18da750&#45;&gt;Node0x18e1eb0 -->
<g id="edge10" class="edge"><title>Node0x18da750&#45;&gt;Node0x18e1eb0</title>
<path fill="none" stroke="black" d="M1740.62,-958.482C1739.69,-949.328 1738.68,-939.497 1737.78,-930.715"/>
<polygon fill="black" stroke="black" points="1741.25,-930.232 1736.75,-920.64 1734.29,-930.944 1741.25,-930.232"/>
</g>
<!-- Node0x18db270 -->
<g id="node12" class="node"><title>Node0x18db270</title>
<polygon fill="none" stroke="black" points="0,-644.5 0,-832.5 1350,-832.5 1350,-644.5 0,-644.5"/>
<text text-anchor="start" x="8" y="-817.3" font-family="Times,serif" font-size="14.00">v9 = v2</text>
<text text-anchor="start" x="8" y="-802.3" font-family="Times,serif" font-size="14.00"> v10 = ((ExtCastExpr&lt;int32&gt;(v2) % 65536) | (v1 &amp; &#45;65536))</text>
<text text-anchor="start" x="8" y="-787.3" font-family="Times,serif" font-size="14.00"> v1 = 26</text>
<text text-anchor="start" x="8" y="-772.3" font-family="Times,serif" font-size="14.00"> v11 = IntToPtrCastExpr&lt;ptr&gt;((((16777216 * (v9 + (&#45;26 * (((((5177344 * v10) / 134217728) % 256) | ((79 * v10) &amp; &#45;65536)) &#45; (((16777216 * v9) &gt;&gt; 31) % 256))))) / 4194304) + mem))</text>
<text text-anchor="start" x="8" y="-757.3" font-family="Times,serif" font-size="14.00"> *(v11) = (*(v11) + 1)</text>
<text text-anchor="start" x="8" y="-742.3" font-family="Times,serif" font-size="14.00"> v12 = *(str2)</text>
<text text-anchor="start" x="8" y="-727.3" font-family="Times,serif" font-size="14.00"> v13 = v12</text>
<text text-anchor="start" x="8" y="-712.3" font-family="Times,serif" font-size="14.00"> v14 = ((ExtCastExpr&lt;int32&gt;(v12) % 65536) | (v1 &amp; &#45;65536))</text>
<text text-anchor="start" x="8" y="-697.3" font-family="Times,serif" font-size="14.00"> v15 = IntToPtrCastExpr&lt;ptr&gt;((((16777216 * (v13 + (&#45;26 * (((((5177344 * v14) / 134217728) % 256) | ((79 * v14) &amp; &#45;65536)) &#45; (((16777216 * v13) &gt;&gt; 31) % 256))))) / 4194304) + mem2))</text>
<text text-anchor="start" x="8" y="-682.3" font-family="Times,serif" font-size="14.00"> *(v15) = (*(v15) + 1)</text>
<text text-anchor="start" x="8" y="-667.3" font-family="Times,serif" font-size="14.00"> v16 = (v8 + 1)</text>
<text text-anchor="start" x="8" y="-652.3" font-family="Times,serif" font-size="14.00"> v17 = *(IntToPtrCastExpr&lt;ptr&gt;(v16))</text>
</g>
<!-- Node0x18de840&#45;&gt;Node0x18db270 -->
<g id="edge11" class="edge"><title>Node0x18de840&#45;&gt;Node0x18db270</title>
<path fill="none" stroke="black" d="M1294.42,-889.719C1243.73,-877.425 1159.1,-856.903 1068.44,-834.916"/>
<polygon fill="black" stroke="black" points="1069.05,-831.462 1058.51,-832.507 1067.4,-838.265 1069.05,-831.462"/>
<text text-anchor="middle" x="1199" y="-854.8" font-family="Times,serif" font-size="14.00">True</text>
</g>
<!-- Node0x18654d0 -->
<g id="node13" class="node"><title>Node0x18654d0</title>
<polygon fill="none" stroke="black" points="1406.5,-689.5 1406.5,-787.5 1905.5,-787.5 1905.5,-689.5 1406.5,-689.5"/>
<text text-anchor="start" x="1414.5" y="-772.3" font-family="Times,serif" font-size="14.00">0x80486a1:</text>
<text text-anchor="start" x="1414.5" y="-757.3" font-family="Times,serif" font-size="14.00"> v3 = v4</text>
<text text-anchor="start" x="1414.5" y="-742.3" font-family="Times,serif" font-size="14.00"> v6 = (4 * v3)</text>
<text text-anchor="start" x="1414.5" y="-727.3" font-family="Times,serif" font-size="14.00"> v5 = *(IntToPtrCastExpr&lt;ptr&gt;((v6 + mem2)))</text>
<text text-anchor="start" x="1414.5" y="-712.3" font-family="Times,serif" font-size="14.00"> v7 = (v7 if (*(IntToPtrCastExpr&lt;ptr&gt;((v6 + mem))) == v5) else 0)</text>
<text text-anchor="start" x="1414.5" y="-697.3" font-family="Times,serif" font-size="14.00"> v4 = (v3 + 1)</text>
</g>
<!-- Node0x18e1eb0&#45;&gt;Node0x18654d0 -->
<g id="edge12" class="edge"><title>Node0x18e1eb0&#45;&gt;Node0x18654d0</title>
<path fill="none" stroke="black" d="M1682.15,-884.476C1674.23,-879.701 1667.04,-873.648 1662,-866 1648.93,-846.171 1645.82,-820.555 1646.59,-797.564"/>
<polygon fill="black" stroke="black" points="1650.09,-797.743 1647.17,-787.558 1643.1,-797.339 1650.09,-797.743"/>
<text text-anchor="middle" x="1690.5" y="-854.8" font-family="Times,serif" font-size="14.00">v4 &lt; 26</text>
</g>
<!-- Node0x18cc670 -->
<g id="node14" class="node"><title>Node0x18cc670</title>
<polygon fill="none" stroke="black" points="1841.5,-587.5 1841.5,-625.5 2002.5,-625.5 2002.5,-587.5 1841.5,-587.5"/>
<text text-anchor="start" x="1849.5" y="-610.3" font-family="Times,serif" font-size="14.00">0x80486d5:</text>
<text text-anchor="start" x="1849.5" y="-595.3" font-family="Times,serif" font-size="14.00"> result = (v7 % 256)</text>
</g>
<!-- Node0x18e1eb0&#45;&gt;Node0x18cc670 -->
<g id="edge13" class="edge"><title>Node0x18e1eb0&#45;&gt;Node0x18cc670</title>
<path fill="none" stroke="black" d="M1800.51,-894.607C1840.54,-886.674 1888.9,-869.625 1915,-833 1957.28,-773.665 1941.81,-681.503 1930.2,-635.544"/>
<polygon fill="black" stroke="black" points="1933.53,-634.451 1927.58,-625.682 1926.76,-636.246 1933.53,-634.451"/>
<text text-anchor="middle" x="1931.5" y="-854.8" font-family="Times,serif" font-size="14.00">v4 &gt;= 26</text>
</g>
<!-- Node0x18db2d0 -->
<g id="node15" class="node"><title>Node0x18db2d0</title>
<polygon fill="none" stroke="black" points="1009,-532.5 1009,-568.5 1123,-568.5 1123,-532.5 1009,-532.5"/>
<text text-anchor="start" x="1017" y="-546.8" font-family="Times,serif" font-size="14.00">if (v17 == 0):</text>
</g>
<!-- Node0x18db270&#45;&gt;Node0x18db2d0 -->
<g id="edge14" class="edge"><title>Node0x18db270&#45;&gt;Node0x18db2d0</title>
<path fill="none" stroke="black" d="M870.786,-644.364C927.052,-617.598 983.286,-590.847 1020.85,-572.98"/>
<polygon fill="black" stroke="black" points="1022.46,-576.09 1029.98,-568.634 1019.45,-569.769 1022.46,-576.09"/>
</g>
<!-- Node0x18654d0&#45;&gt;Node0x18e1eb0 -->
<g id="edge15" class="edge"><title>Node0x18654d0&#45;&gt;Node0x18e1eb0</title>
<path fill="none" stroke="black" d="M1686.17,-787.773C1697.41,-806.991 1709.68,-829.595 1719,-851 1722.27,-858.505 1725.2,-866.895 1727.63,-874.648"/>
<polygon fill="black" stroke="black" points="1724.31,-875.765 1730.52,-884.345 1731.02,-873.762 1724.31,-875.765"/>
</g>
<!-- Node0x18cc670&#45;&gt;Node0x18e1aa0 -->
<g id="edge16" class="edge"><title>Node0x18cc670&#45;&gt;Node0x18e1aa0</title>
<path fill="none" stroke="black" d="M1922,-587.438C1922,-567.774 1922,-535.403 1922,-507.5 1922,-507.5 1922,-507.5 1922,-145.5 1922,-119.765 1922,-90.414 1922,-69.6451"/>
<polygon fill="black" stroke="black" points="1925.5,-69.6312 1922,-59.6313 1918.5,-69.6313 1925.5,-69.6312"/>
</g>
<!-- Node0x18dfbc0 -->
<g id="node16" class="node"><title>Node0x18dfbc0</title>
<polygon fill="none" stroke="black" points="1034,-435 1034,-473 1098,-473 1098,-435 1034,-435"/>
<text text-anchor="start" x="1042" y="-457.8" font-family="Times,serif" font-size="14.00">v3 = 0</text>
<text text-anchor="start" x="1042" y="-442.8" font-family="Times,serif" font-size="14.00"> break</text>
</g>
<!-- Node0x18db2d0&#45;&gt;Node0x18dfbc0 -->
<g id="edge17" class="edge"><title>Node0x18db2d0&#45;&gt;Node0x18dfbc0</title>
<path fill="none" stroke="black" d="M1066,-532.167C1066,-518.573 1066,-499.367 1066,-483.516"/>
<polygon fill="black" stroke="black" points="1069.5,-483.189 1066,-473.189 1062.5,-483.189 1069.5,-483.189"/>
<text text-anchor="middle" x="1100.5" y="-502.8" font-family="Times,serif" font-size="14.00">v17 == 0</text>
</g>
<!-- Node0x18d1e10 -->
<g id="node17" class="node"><title>Node0x18d1e10</title>
<polygon fill="none" stroke="black" points="1116,-427.5 1116,-480.5 1640,-480.5 1640,-427.5 1116,-427.5"/>
<text text-anchor="start" x="1124" y="-465.3" font-family="Times,serif" font-size="14.00">v2 = v17</text>
<text text-anchor="start" x="1124" y="-450.3" font-family="Times,serif" font-size="14.00"> v8 = v16</text>
<text text-anchor="start" x="1124" y="-435.3" font-family="Times,serif" font-size="14.00"> str2 = IntToPtrCastExpr&lt;ptr&gt;((PtrToIntCastExpr&lt;int32&gt;(str2) + 1))</text>
</g>
<!-- Node0x18db2d0&#45;&gt;Node0x18d1e10 -->
<g id="edge18" class="edge"><title>Node0x18db2d0&#45;&gt;Node0x18d1e10</title>
<path fill="none" stroke="black" d="M1122.14,-532.496C1167.15,-518.864 1231.28,-499.438 1284.08,-483.446"/>
<polygon fill="black" stroke="black" points="1285.25,-486.75 1293.8,-480.502 1283.22,-480.051 1285.25,-486.75"/>
<text text-anchor="middle" x="1263.5" y="-502.8" font-family="Times,serif" font-size="14.00">v17 != 0</text>
</g>
<!-- Node0x18df6b0 -->
<g id="node18" class="node"><title>Node0x18df6b0</title>
<polygon fill="none" stroke="black" points="1039.5,-321.5 1039.5,-389.5 1530.5,-389.5 1530.5,-321.5 1039.5,-321.5"/>
<text text-anchor="start" x="1047.5" y="-374.3" font-family="Times,serif" font-size="14.00">v6 = (4 * v3)</text>
<text text-anchor="start" x="1047.5" y="-359.3" font-family="Times,serif" font-size="14.00"> v5 = *(IntToPtrCastExpr&lt;ptr&gt;((v6 + mem2)))</text>
<text text-anchor="start" x="1047.5" y="-344.3" font-family="Times,serif" font-size="14.00"> v7 = (1 if (*(IntToPtrCastExpr&lt;ptr&gt;((v6 + mem))) == v5) else 0)</text>
<text text-anchor="start" x="1047.5" y="-329.3" font-family="Times,serif" font-size="14.00"> v4 = (v3 + 1)</text>
</g>
<!-- Node0x18dfbc0&#45;&gt;Node0x18df6b0 -->
<g id="edge19" class="edge"><title>Node0x18dfbc0&#45;&gt;Node0x18df6b0</title>
<path fill="none" stroke="black" d="M1092.93,-434.923C1097.54,-432.12 1102.34,-429.372 1107,-427 1130.77,-414.893 1157.12,-403.449 1182.11,-393.442"/>
<polygon fill="black" stroke="black" points="1183.61,-396.615 1191.61,-389.678 1181.03,-390.107 1183.61,-396.615"/>
</g>
<!-- Node0x18d1e10&#45;&gt;Node0x18de840 -->
<g id="edge20" class="edge"><title>Node0x18d1e10&#45;&gt;Node0x18de840</title>
<path fill="none" stroke="black" d="M1378.29,-480.817C1378.63,-542.201 1377.5,-701.566 1359,-833 1357.05,-846.888 1353.62,-862.101 1350.45,-874.656"/>
<polygon fill="black" stroke="black" points="1347.02,-873.928 1347.87,-884.488 1353.79,-875.701 1347.02,-873.928"/>
</g>
<!-- Node0x18dd3d0 -->
<g id="node19" class="node"><title>Node0x18dd3d0</title>
<polygon fill="none" stroke="black" points="1373.5,-247.5 1373.5,-283.5 1504.5,-283.5 1504.5,-247.5 1373.5,-247.5"/>
<text text-anchor="start" x="1381.5" y="-261.8" font-family="Times,serif" font-size="14.00">while (v4 &lt; 26):</text>
</g>
<!-- Node0x18df6b0&#45;&gt;Node0x18dd3d0 -->
<g id="edge21" class="edge"><title>Node0x18df6b0&#45;&gt;Node0x18dd3d0</title>
<path fill="none" stroke="black" d="M1342.78,-321.482C1361.97,-310.518 1382.86,-298.581 1400.25,-288.641"/>
<polygon fill="black" stroke="black" points="1402.06,-291.641 1409,-283.64 1398.59,-285.563 1402.06,-291.641"/>
</g>
<!-- Node0x18d2e40 -->
<g id="node20" class="node"><title>Node0x18d2e40</title>
<polygon fill="none" stroke="black" points="1189.5,-97.5 1189.5,-195.5 1688.5,-195.5 1688.5,-97.5 1189.5,-97.5"/>
<text text-anchor="start" x="1197.5" y="-180.3" font-family="Times,serif" font-size="14.00">0x80486a1:</text>
<text text-anchor="start" x="1197.5" y="-165.3" font-family="Times,serif" font-size="14.00"> v3 = v4</text>
<text text-anchor="start" x="1197.5" y="-150.3" font-family="Times,serif" font-size="14.00"> v6 = (4 * v3)</text>
<text text-anchor="start" x="1197.5" y="-135.3" font-family="Times,serif" font-size="14.00"> v5 = *(IntToPtrCastExpr&lt;ptr&gt;((v6 + mem2)))</text>
<text text-anchor="start" x="1197.5" y="-120.3" font-family="Times,serif" font-size="14.00"> v7 = (v7 if (*(IntToPtrCastExpr&lt;ptr&gt;((v6 + mem))) == v5) else 0)</text>
<text text-anchor="start" x="1197.5" y="-105.3" font-family="Times,serif" font-size="14.00"> v4 = (v3 + 1)</text>
</g>
<!-- Node0x18dd3d0&#45;&gt;Node0x18d2e40 -->
<g id="edge22" class="edge"><title>Node0x18dd3d0&#45;&gt;Node0x18d2e40</title>
<path fill="none" stroke="black" d="M1416.93,-247.438C1411.7,-242.153 1406.82,-235.887 1404,-229 1400.88,-221.386 1400.58,-213.4 1402.07,-205.529"/>
<polygon fill="black" stroke="black" points="1405.51,-206.229 1404.84,-195.656 1398.77,-204.343 1405.51,-206.229"/>
<text text-anchor="middle" x="1432.5" y="-217.8" font-family="Times,serif" font-size="14.00">v4 &lt; 26</text>
</g>
<!-- Node0x1865a00 -->
<g id="node21" class="node"><title>Node0x1865a00</title>
<polygon fill="none" stroke="black" points="1732.5,-127.5 1732.5,-165.5 1881.5,-165.5 1881.5,-127.5 1732.5,-127.5"/>
<text text-anchor="start" x="1740.5" y="-150.3" font-family="Times,serif" font-size="14.00">0x80486d9:</text>
<text text-anchor="start" x="1740.5" y="-135.3" font-family="Times,serif" font-size="14.00"> return (v7 % 256)</text>
</g>
<!-- Node0x18dd3d0&#45;&gt;Node0x1865a00 -->
<g id="edge23" class="edge"><title>Node0x18dd3d0&#45;&gt;Node0x1865a00</title>
<path fill="none" stroke="black" d="M1504.53,-250.234C1557.43,-237.992 1633.4,-218.75 1698,-196 1719.15,-188.55 1741.91,-178.726 1761.14,-169.868"/>
<polygon fill="black" stroke="black" points="1762.68,-173.009 1770.27,-165.612 1759.72,-166.665 1762.68,-173.009"/>
<text text-anchor="middle" x="1676.5" y="-217.8" font-family="Times,serif" font-size="14.00">v4 &gt;= 26</text>
</g>
<!-- Node0x18d2e40&#45;&gt;Node0x18dd3d0 -->
<g id="edge24" class="edge"><title>Node0x18d2e40&#45;&gt;Node0x18dd3d0</title>
<path fill="none" stroke="black" d="M1460.86,-195.828C1463.35,-206.752 1464.05,-218.287 1461,-229 1460.09,-232.208 1458.79,-235.409 1457.28,-238.502"/>
<polygon fill="black" stroke="black" points="1454.15,-236.931 1452.27,-247.358 1460.24,-240.379 1454.15,-236.931"/>
</g>
<!-- Node0x1865a00&#45;&gt;Node0x18e1aa0 -->
<g id="edge25" class="edge"><title>Node0x1865a00&#45;&gt;Node0x18e1aa0</title>
<path fill="none" stroke="black" d="M1827.29,-127.323C1846.16,-110.423 1874.4,-85.1347 1895.13,-66.5659"/>
<polygon fill="black" stroke="black" points="1897.56,-69.0887 1902.67,-59.8097 1892.89,-63.8743 1897.56,-69.0887"/>
</g>
</g>
</svg>
